<svg width="12" height="12" viewBox="0 0 12 12" fill="none" xmlns="http://www.w3.org/2000/svg">
<path fill-rule="evenodd" clip-rule="evenodd" d="M3 0C3.55228 0 4 0.447715 4 1L4.0009 3.17102C5.16562 3.58311 6 4.69412 6 6C6 7.30588 5.16562 8.41689 4.0009 8.82898L4 11C4 11.5523 3.55228 12 3 12C2.44772 12 2 11.5523 2 11L2.00009 8.82933C0.83485 8.41751 0 7.30625 0 6C0 4.69375 0.83485 3.58249 2.00009 3.17067L2 1C2 0.447715 2.44772 0 3 0ZM9 0C9.55229 0 10 0.447715 10 1L10.0009 6.17102C11.1656 6.58312 12 7.69412 12 9C12 10.6569 10.6569 12 9 12C7.34315 12 6 10.6569 6 9C6 7.69375 6.83485 6.58249 8.00009 6.17067L8 1C8 0.447715 8.44771 0 9 0ZM9 8C8.44771 8 8 8.44771 8 9C8 9.55229 8.44771 10 9 10C9.55229 10 10 9.55229 10 9C10 8.44771 9.55229 8 9 8ZM3 5C2.44772 5 2 5.44772 2 6C2 6.55228 2.44772 7 3 7C3.55228 7 4 6.55228 4 6C4 5.44772 3.55228 5 3 5Z" fill="#010812"/>
</svg>
