<svg width="12" height="12" viewBox="0 0 12 12" fill="none" xmlns="http://www.w3.org/2000/svg">
<path fill-rule="evenodd" clip-rule="evenodd" d="M8.707 7.293C9.098 7.684 9.098 8.316 8.707 8.707C8.512 8.902 8.256 9 8 9C7.744 9 7.488 8.902 7.293 8.707L6 7.414L4.707 8.707C4.512 8.902 4.256 9 4 9C3.744 9 3.488 8.902 3.293 8.707C2.902 8.316 2.902 7.684 3.293 7.293L4.586 6L3.293 4.707C2.902 4.316 2.902 3.684 3.293 3.293C3.684 2.902 4.316 2.902 4.707 3.293L6 4.586L7.293 3.293C7.684 2.902 8.316 2.902 8.707 3.293C9.098 3.684 9.098 4.316 8.707 4.707L7.414 6L8.707 7.293ZM6 0C2.686 0 0 2.687 0 6C0 9.314 2.686 12 6 12C9.313 12 12 9.314 12 6C12 2.687 9.313 0 6 0Z" fill="#121212"/>
</svg>
