<?xml version="1.0" encoding="utf-8"?>
<svg version="1.1" id="Layer_1" xmlns="http://www.w3.org/2000/svg" x="0px" y="0px"
	 viewBox="0 0 176.5 116.7" style="enable-background:new 0 0 176.5 116.7;" xml:space="preserve">
<style type="text/css">
	.st0{fill:white;}
</style>
<path class="st0" d="M56,60.3c0.1,0,0.2,0,0.3,0c0.1,0,0.3,0,0.4,0c1.9,0,4-0.3,5.5-1.6c1.2-1,1.8-2.4,1.8-4c0-1.5-0.4-2.8-1.4-3.8
	c-1-1.1-2.4-1.5-3.9-1.5c-0.9,0-1.8,0.1-2.7,0.3V60.3z M58.2,62.2c-0.5,0-1,0-1.4,0c-0.2,0-0.4,0-0.5,0c-0.1,0-0.2,0-0.3,0v7.4
	c0,0.6,0,2.4,0.5,2.9c1.7,2,3.4,0.8,3.4,2.1H47.7c0-1.8,3.8,0.8,3.8-5V52.8c0-5.6-3.8-3.9-3.8-5.5h10c1.9,0,4.5,0.1,6.4,0.6
	c1.4,0.4,2.6,1.3,3.6,2.4c1,1.2,1.5,2.6,1.5,4.2c0,1.7-0.6,3.2-1.7,4.5c-1.2,1.4-2.9,2.1-4.7,2.5l5.2,7.2c0.8,1.1,2,2.7,3.2,3.4
	c3,2,3.7,1.1,3.7,2.4h-7.6L58.2,62.2z"/>
<path class="st0" d="M129.8,63.6l-4-9.6l-4.1,9.6H129.8z M130.7,65.7h-9.9l-1.7,4c-0.2,0.6-0.6,1.6-0.6,2.2c0,2.1,3.1,1.1,3.1,2.7
	h-9.1c0-1.1,0.8-0.4,2.3-2.1c0.9-0.8,1.7-2.6,2.1-3.7l9.5-21.6h1.1l9.4,21.8c2.6,6.1,4.6,3.6,4.6,5.5h-11.2c0-1.7,2.7-0.1,2.7-2.7
	c0-0.7-0.5-1.9-0.8-2.6L130.7,65.7z"/>
<path class="st0" d="M82.6,74.6h-6.1c0-2.2,3.8,0.9,3.8-5v-5.7V58v-5.7c0-6-3.8-2.8-3.8-5h6.1h6.1c0,2.2-3.8-0.9-3.8,5V58v5.9v5.7
	c0,6,3.8,2.8,3.8,5H82.6z"/>
<path class="st0" d="M107.5,63v6.7c0,5.4,3.8,3.2,3.8,5H99.2c0-1.4,2-0.2,3.4-2.3c0.4-0.5,0.4-2.1,0.4-2.7v-6.1l-7.2-11.2
	c-0.5-0.7-1.1-1.8-1.7-2.4c-2.3-2.5-3.1-1.3-3.1-2.7h12c0,1.5-3.1,0.5-3.1,2.8c0,0.6,0.9,1.9,1.2,2.4l5.2,8.2l5-7.8
	c3.6-5.7-1.6-3.6-1.6-5.5h10c0,1.2-0.9,0.1-3.9,3c-0.7,0.8-1.4,1.8-1.9,2.7L107.5,63z"/>
<path class="st0" d="M15,53.4v16.3c0,0.6,0,2.4,0.5,2.9c1.7,2,3.4,1,3.4,2.1h-10c0-1.1,1.9,0,3.4-2.3c0.4-0.5,0.4-2.1,0.4-2.7V52.3
	c0-0.7,0-1.8-0.4-2.4c-0.2-0.4-0.5-0.6-0.9-0.8c-2.2-1.2-2.6-1-2.6-1.7h8.2l9.4,20.4l9.3-20.4h8.1c0,1.5-3.8,0.3-3.8,5v17.4
	c0,0.6,0,2.4,0.5,2.9c1.8,2,3.3,0.7,3.3,2.1H31.7c0-1.2,1.9,0,3.4-2.3c0.4-0.5,0.4-2.1,0.4-2.7V53.4l-9.7,21.3h-1.1L15,53.4z"/>
<path class="st0" d="M157.7,10.6c-7.1,1.8-16.2,7.6-20.5,13.7c-1.7-5.6-4.1-11.1-8.2-15.9c-2.4,6.2-5,12.6-4.7,19.8
	c-2.5-2-5-4-7.6-5.9c0.3,5.4,0.7,11.4,4.5,16.6c1.8,2.5,4.8,3.8,7.5,5.2c1,0.4,1.8,0.9,2.6,1.6c0.8,0.6,1.6,1.2,2.2,2
	c2.1,2.2,4.1,4.7,7.1,5.7c6,2.3,11.9,1,17.2-0.2c-2.5-2-5.1-3.8-7.8-5.7c7-1.7,12.5-5.9,17.7-10c-5.8-2.6-11.7-3.4-17.6-3.5
	C154.8,28.3,157.9,18,157.7,10.6 M137.6,37.3c10.5-6.1,14.8-9.2,16.7-22.2C142.3,20.5,140.6,25.5,137.6,37.3z M132.2,44.4
	c-0.8-0.7-1.6-1.3-2.6-1.8c-2.7-1.5-6-2.8-7.7-5.6c-2.4-3.6-2.5-7.6-3-11.4c2.6,2.2,5.6,4.2,7.2,7.2c1.6,2.9,3.5,5.1,6,7.6
	c-2.4-3.7-6.1-9.5-5.6-14.8c0.2-4.8,1.9-9,3.3-13.3c6.6,11.4,6.4,16.3,4.8,27.6c4.3-11.8,4.3-20.5,20.7-26.3
	c-1,17.3-9.3,19.8-19.5,27.1c10.4-4.7,15.1-6.2,27.9-3c-3.7,2.6-7.3,5.3-11.8,6.9c-4.9,1.9-11.5,0.1-15.8-1.3c3.1,1.8,5.7,2.9,9,3.7
	c3.3,0.7,6.1,3,8.9,4.9c-3.8,0.5-7.7,1.5-11.8,0.2c-3.1-0.9-5.2-3.7-7.5-5.9C134,45.6,133.1,44.9,132.2,44.4z"/>
<path class="st0" d="M25.6,81.9v3.1h0.3c0.5,0,0.9,0,1.1-0.1c0.3-0.1,0.4-0.3,0.6-0.5c0.1-0.2,0.2-0.5,0.2-0.9c0-0.5-0.1-1-0.4-1.2
	c-0.3-0.3-0.7-0.4-1.3-0.4H25.6z M25.6,85.5v2c0,0.4,0,0.6,0.1,0.7c0,0.1,0.1,0.2,0.3,0.2c0.1,0.1,0.4,0.1,0.7,0.1v0.2h-3.8v-0.2
	c0.3,0,0.6,0,0.7-0.1c0.1-0.1,0.2-0.1,0.3-0.2c0-0.1,0.1-0.3,0.1-0.7v-4.7c0-0.4,0-0.6-0.1-0.7c0-0.1-0.1-0.2-0.3-0.2
	c-0.1-0.1-0.4-0.1-0.7-0.1v-0.2h3.4c0.9,0,1.5,0.1,2,0.2c0.4,0.1,0.8,0.3,1,0.7c0.3,0.3,0.4,0.7,0.4,1.1c0,0.5-0.2,1-0.6,1.3
	c-0.3,0.2-0.6,0.4-1.1,0.5l1.8,2.4c0.2,0.3,0.4,0.5,0.5,0.6c0.1,0.1,0.3,0.2,0.5,0.2v0.2h-2.3L26,85.5H25.6z"/>
<path class="st0" d="M36.7,82v2.9h0.1c0.5,0,0.8-0.1,1-0.4c0.2-0.3,0.3-0.7,0.4-1.3h0.2v3.8h-0.2c0-0.4-0.1-0.7-0.3-1
	c-0.1-0.3-0.3-0.4-0.5-0.5c-0.2-0.1-0.5-0.1-0.8-0.1v2c0,0.4,0,0.6,0.1,0.7c0,0.1,0.1,0.2,0.2,0.2c0.1,0.1,0.2,0.1,0.5,0.1h0.4
	c0.7,0,1.2-0.2,1.7-0.5c0.4-0.3,0.7-0.8,0.9-1.4h0.2l-0.3,2.3h-6.4v-0.2h0.2c0.2,0,0.4,0,0.5-0.1c0.1-0.1,0.2-0.1,0.2-0.3
	c0-0.1,0.1-0.3,0.1-0.7v-4.7c0-0.3,0-0.5,0-0.6c0-0.1-0.1-0.2-0.2-0.3c-0.1-0.1-0.3-0.1-0.6-0.1h-0.2v-0.2h6.2v2.1h-0.2
	c-0.1-0.5-0.3-0.9-0.4-1.1c-0.2-0.2-0.5-0.4-0.8-0.5C38.4,82,38.1,82,37.5,82H36.7z"/>
<path class="st0" d="M49.4,81.4l0.1,2.4h-0.2c-0.1-0.6-0.4-1.1-0.8-1.4c-0.4-0.4-0.9-0.5-1.3-0.5c-0.4,0-0.7,0.1-0.9,0.3
	c-0.2,0.2-0.3,0.4-0.3,0.7c0,0.2,0,0.3,0.1,0.4c0.1,0.2,0.3,0.3,0.5,0.5c0.2,0.1,0.6,0.3,1.2,0.6c0.9,0.4,1.4,0.8,1.8,1.2
	c0.3,0.4,0.4,0.8,0.4,1.3c0,0.6-0.2,1.1-0.7,1.5c-0.5,0.4-1.1,0.6-1.8,0.6c-0.2,0-0.5,0-0.7-0.1c-0.2,0-0.5-0.1-0.8-0.3
	c-0.2-0.1-0.3-0.1-0.4-0.1c-0.1,0-0.2,0-0.3,0.1c-0.1,0.1-0.2,0.2-0.3,0.3h-0.2v-2.7H45c0.2,0.8,0.5,1.3,0.9,1.7
	c0.5,0.4,0.9,0.6,1.5,0.6c0.4,0,0.7-0.1,1-0.3c0.2-0.2,0.4-0.5,0.4-0.8c0-0.2,0-0.3-0.1-0.5c-0.1-0.2-0.2-0.3-0.4-0.5
	c-0.2-0.1-0.5-0.3-1-0.6c-0.7-0.3-1.2-0.6-1.4-0.8c-0.3-0.2-0.5-0.5-0.7-0.8c-0.2-0.3-0.2-0.6-0.2-0.9c0-0.6,0.2-1.1,0.6-1.5
	c0.4-0.4,1-0.6,1.6-0.6c0.2,0,0.5,0,0.7,0.1c0.2,0,0.4,0.1,0.6,0.2c0.2,0.1,0.4,0.2,0.5,0.2c0.1,0,0.2,0,0.2-0.1
	c0.1-0.1,0.1-0.2,0.2-0.4H49.4z"/>
<path class="st0" d="M57.8,81.8c-0.7,0-1.2,0.3-1.5,1c-0.3,0.5-0.4,1.3-0.4,2.4c0,1.2,0.2,2.1,0.7,2.7c0.3,0.4,0.7,0.6,1.3,0.6
	c0.4,0,0.7-0.1,0.9-0.3c0.3-0.2,0.6-0.6,0.7-1.1c0.2-0.5,0.3-1.1,0.3-1.9c0-0.9-0.1-1.7-0.3-2.1c-0.2-0.5-0.4-0.8-0.7-1
	C58.5,81.9,58.2,81.8,57.8,81.8 M57.8,81.4c1.2,0,2.1,0.3,2.9,1c0.7,0.7,1.1,1.6,1.1,2.7c0,0.9-0.3,1.7-0.8,2.4
	c-0.7,0.9-1.8,1.4-3.1,1.4c-1.3,0-2.4-0.4-3.1-1.3c-0.6-0.7-0.9-1.5-0.9-2.5c0-1.1,0.4-2,1.1-2.7C55.7,81.7,56.7,81.4,57.8,81.4z"/>
<path class="st0" d="M67.3,81.9v3.1h0.3c0.5,0,0.9,0,1.1-0.1c0.2-0.1,0.4-0.3,0.6-0.5c0.1-0.2,0.2-0.5,0.2-0.9c0-0.5-0.1-1-0.4-1.2
	c-0.3-0.3-0.7-0.4-1.3-0.4H67.3z M67.3,85.5v2c0,0.4,0,0.6,0.1,0.7c0,0.1,0.1,0.2,0.3,0.2c0.1,0.1,0.4,0.1,0.7,0.1v0.2h-3.8v-0.2
	c0.3,0,0.6,0,0.7-0.1c0.1-0.1,0.2-0.1,0.3-0.2c0-0.1,0.1-0.3,0.1-0.7v-4.7c0-0.4,0-0.6-0.1-0.7c-0.1-0.1-0.1-0.2-0.3-0.2
	c-0.1-0.1-0.4-0.1-0.7-0.1v-0.2H68c0.9,0,1.5,0.1,2,0.2c0.4,0.1,0.8,0.3,1,0.7c0.3,0.3,0.4,0.7,0.4,1.1c0,0.5-0.2,1-0.6,1.3
	c-0.3,0.2-0.6,0.4-1.1,0.5l1.8,2.4c0.2,0.3,0.4,0.5,0.5,0.6c0.1,0.1,0.3,0.2,0.5,0.2v0.2h-2.3l-2.4-3.3H67.3z"/>
<path class="st0" d="M82.2,81.5v1.9H82c-0.1-0.4-0.2-0.8-0.4-1c-0.1-0.2-0.3-0.4-0.6-0.5C80.9,82,80.6,82,80.3,82h-0.5v5.5
	c0,0.4,0,0.6,0.1,0.7c0,0.1,0.1,0.2,0.2,0.2c0.1,0.1,0.3,0.1,0.5,0.1h0.2v0.2h-3.9v-0.2h0.2c0.2,0,0.4,0,0.5-0.1
	c0.1,0,0.2-0.1,0.2-0.3c0-0.1,0.1-0.3,0.1-0.7V82h-0.5c-0.5,0-0.9,0.1-1.1,0.3c-0.3,0.3-0.5,0.7-0.6,1.2h-0.2v-1.9H82.2z"/>
<path class="st0" d="M91.3,84c0.3-0.2,0.5-0.4,0.6-0.5c0.1-0.2,0.1-0.4,0-0.6c-0.1-0.4-0.3-0.7-0.6-0.9c-0.2-0.2-0.4-0.2-0.6-0.2
	c-0.2,0-0.3,0.1-0.4,0.3c-0.1,0.1-0.1,0.3,0,0.5c0.1,0.2,0.1,0.3,0.3,0.5C90.7,83.3,90.9,83.6,91.3,84 M90.2,85.1
	c-0.2,0.2-0.4,0.3-0.5,0.5c-0.1,0.2-0.1,0.4,0,0.7c0.1,0.3,0.3,0.6,0.6,0.9c0.3,0.3,0.6,0.5,0.9,0.6c0.3,0.1,0.6,0.2,0.9,0.1
	c0.1,0,0.3,0,0.5-0.2C91.7,86.8,91,85.9,90.2,85.1z M93.6,84.4h2.3l0,0.2c-0.2,0-0.4,0.1-0.6,0.2c-0.1,0.1-0.3,0.4-0.4,0.8
	c-0.2,0.4-0.4,0.9-0.8,1.4c0.4,0.3,0.8,0.5,1,0.7c0.2,0.1,0.3,0.1,0.5,0.1c0.3,0,0.5-0.2,0.6-0.5l0.2,0.1c-0.2,0.6-0.5,1-0.8,1.2
	c-0.2,0.2-0.5,0.3-0.8,0.3c-0.3,0-0.6-0.1-0.8-0.2c-0.3-0.1-0.6-0.3-1-0.7c-0.4,0.3-0.8,0.5-1.2,0.6c-0.4,0.1-0.2,0.1-0.6,0.2
	c-0.7,0.1-1.3,0-1.8-0.3c-0.5-0.3-0.8-0.7-1-1.1c-0.2-0.5-0.1-1,0.1-1.4c0.3-0.4,0.7-0.8,1.4-1.2c-0.2-0.2-0.3-0.4-0.4-0.6
	c-0.1-0.2-0.2-0.4-0.3-0.6c-0.2-0.5-0.1-1,0.2-1.5c0.3-0.4,0.7-0.7,1.4-0.8c0.5-0.1,0.9,0,1.3,0.2c0.4,0.2,0.6,0.4,0.7,0.8
	c0.1,0.4,0.1,0.7-0.1,1.1c-0.2,0.3-0.6,0.6-1.2,1c0.6,0.6,1.4,1.6,2.3,2.4c0.4-0.6,0.6-1.1,0.6-1.5c0-0.1-0.1-0.3-0.2-0.4
	c-0.1-0.1-0.3-0.2-0.5-0.2L93.6,84.4z"/>
<path class="st0" d="M107,81.4l0.1,2.4h-0.2c-0.1-0.6-0.4-1.1-0.8-1.4c-0.4-0.4-0.9-0.5-1.3-0.5c-0.4,0-0.7,0.1-0.9,0.3
	c-0.2,0.2-0.3,0.4-0.3,0.7c0,0.2,0,0.3,0.1,0.4c0.1,0.2,0.3,0.3,0.5,0.5c0.2,0.1,0.6,0.3,1.2,0.6c0.9,0.4,1.4,0.8,1.7,1.2
	c0.3,0.4,0.4,0.8,0.4,1.3c0,0.6-0.2,1.1-0.7,1.5c-0.5,0.4-1.1,0.6-1.8,0.6c-0.2,0-0.5,0-0.7-0.1c-0.2,0-0.5-0.1-0.8-0.3
	c-0.2-0.1-0.3-0.1-0.4-0.1c-0.1,0-0.2,0-0.3,0.1c-0.1,0.1-0.2,0.2-0.3,0.3h-0.2v-2.7h0.2c0.2,0.8,0.5,1.3,0.9,1.7
	c0.5,0.4,0.9,0.6,1.5,0.6c0.4,0,0.7-0.1,1-0.3c0.2-0.2,0.4-0.5,0.4-0.8c0-0.2,0-0.3-0.1-0.5c-0.1-0.2-0.2-0.3-0.4-0.5
	c-0.2-0.1-0.5-0.3-1-0.6c-0.7-0.3-1.2-0.6-1.4-0.8c-0.3-0.2-0.5-0.5-0.7-0.8c-0.2-0.3-0.2-0.6-0.2-0.9c0-0.6,0.2-1.1,0.6-1.5
	c0.4-0.4,1-0.6,1.6-0.6c0.2,0,0.5,0,0.7,0.1c0.2,0,0.4,0.1,0.6,0.2c0.2,0.1,0.4,0.2,0.5,0.2c0.1,0,0.2,0,0.2-0.1
	c0.1-0.1,0.1-0.2,0.1-0.4H107z"/>
<path class="st0" d="M113.7,82v3.1c0.1,0,0.2,0,0.3,0c0.4,0,0.8-0.1,1-0.4c0.2-0.3,0.4-0.7,0.4-1.2c0-0.5-0.1-0.9-0.4-1.2
	c-0.2-0.2-0.6-0.4-1.1-0.4H113.7z M113.7,85.5v2c0,0.4,0,0.6,0.1,0.7c0,0.1,0.1,0.2,0.3,0.2c0.1,0.1,0.4,0.1,0.7,0.1v0.2H111v-0.2
	c0.3,0,0.6,0,0.7-0.1c0.1-0.1,0.2-0.1,0.3-0.2c0-0.1,0.1-0.3,0.1-0.7v-4.7c0-0.4,0-0.6-0.1-0.7c0-0.1-0.1-0.2-0.3-0.2
	c-0.1-0.1-0.4-0.1-0.7-0.1v-0.2h3.2c1.1,0,1.8,0.2,2.3,0.5c0.5,0.4,0.7,0.8,0.7,1.4c0,0.5-0.1,0.9-0.4,1.2c-0.3,0.3-0.7,0.6-1.2,0.7
	C115.2,85.4,114.6,85.5,113.7,85.5z"/>
<path class="st0" d="M123.8,86.3l-1.1-2.5l-1.1,2.5H123.8z M124,86.7h-2.6l-0.3,0.7c-0.1,0.2-0.1,0.4-0.1,0.6c0,0.2,0.1,0.4,0.2,0.4
	c0.1,0.1,0.3,0.1,0.7,0.1v0.2h-2.4v-0.2c0.3,0,0.5-0.1,0.7-0.3c0.2-0.2,0.4-0.5,0.6-1.1l2.6-5.7h0.1l2.7,5.9
	c0.3,0.6,0.5,0.9,0.6,1.1c0.1,0.1,0.3,0.2,0.5,0.2v0.2h-3.6v-0.2h0.1c0.3,0,0.5,0,0.6-0.1c0.1-0.1,0.1-0.1,0.1-0.2
	c0-0.1,0-0.1,0-0.2c0,0-0.1-0.2-0.2-0.4L124,86.7z"/>
<polygon class="st0" points="95.5,94.8 96.6,97.1 99.3,97.5 97.4,99.4 97.8,102 95.5,100.7 93.1,102 93.6,99.4 91.7,97.5 94.3,97.1
	"/>
<polygon class="st0" points="85.3,94.8 86.4,97.1 89,97.5 87.2,99.4 87.6,102 85.3,100.7 82.9,102 83.4,99.4 81.5,97.5 84.1,97.1
	"/>
<polygon class="st0" points="75.1,94.8 76.2,97.1 78.8,97.5 76.9,99.4 77.4,102 75.1,100.7 72.7,102 73.2,99.4 71.3,97.5 73.9,97.1
	"/>
<polygon class="st0" points="64.8,94.8 66,97.1 68.6,97.5 66.7,99.4 67.2,102 64.8,100.7 62.5,102 63,99.4 61.1,97.5 63.7,97.1 "/>
<polygon class="st0" points="103.1,98.1 103.1,99.9 131.9,99.1 131.9,98.9 "/>
<polygon class="st0" points="54.6,94.8 53.5,97.1 50.9,97.5 52.7,99.4 52.3,102 54.6,100.7 57,102 56.5,99.4 58.4,97.5 55.8,97.1
	"/>
<polygon class="st0" points="47.1,98.1 47.1,99.9 18.3,99.1 18.3,98.9 "/>
</svg>
