<svg width="256" height="40" viewBox="0 0 256 40" fill="none" xmlns="http://www.w3.org/2000/svg">
<path d="M97.8494 15.6197V30.4764H92.4245V15.6197H86.9377V10.8897H103.321V15.6197H97.8494Z" fill="white"/>
<path d="M115.999 24.5682H107.382C107.552 26.1965 108.498 26.9099 109.877 26.9099C111.164 26.9099 112.233 26.6308 113.675 25.8709L115.596 29.0965C113.783 30.1666 111.908 30.7714 109.614 30.7714C105.196 30.7714 102.763 27.6388 102.763 23.1259C102.763 18.0548 105.615 15.4649 109.474 15.4649C113.504 15.4649 116.015 18.1168 116.015 23.5757C116.015 24.0099 116.015 24.3201 115.999 24.5682ZM109.335 19.2024C108.188 19.2024 107.552 19.9933 107.382 21.4356H111.582C111.319 19.9468 110.823 19.2024 109.335 19.2024Z" fill="white"/>
<path d="M125.361 30.7866C121.052 30.7866 118.479 28.0416 118.479 23.0945C118.479 18.5817 120.773 15.4801 125.47 15.4801C128.244 15.4801 129.825 16.7673 131.112 18.8298L127.64 21.4662C126.942 20.179 126.462 19.5587 125.377 19.5587C124.09 19.5587 123.439 20.8459 123.439 23.1721C123.439 25.4983 124.137 26.6924 125.516 26.6924C126.462 26.6924 127.144 26.1651 128.058 24.7849L131.251 27.2817C129.546 29.794 127.965 30.7866 125.361 30.7866Z" fill="white"/>
<path d="M142.519 30.4766V22.1332C142.519 20.2257 141.884 19.7295 140.845 19.7295C139.776 19.7295 139.14 20.2257 139.14 22.0867V30.4766H134.103V12.084L139.14 10.0679V16.7674C140.07 16.0696 141.093 15.4803 142.829 15.4803C146.053 15.4803 147.588 17.6359 147.588 21.4974V30.4766H142.519Z" fill="white"/>
<path d="M159.631 30.7868C153.819 30.7868 150.703 26.4755 150.703 20.691C150.703 14.3947 154.392 10.5952 159.646 10.5952C164.451 10.5952 166.358 12.6733 167.706 16.3643L162.793 18.2717C162.095 16.4573 161.429 15.3097 159.631 15.3097C157.368 15.3097 156.392 17.5739 156.392 20.6755C156.392 23.6686 157.337 26.0413 159.693 26.0413C161.398 26.0413 162.126 25.1108 163.18 23.2654L167.768 25.7001C166.466 28.29 164.281 30.7868 159.631 30.7868Z" fill="white"/>
<path d="M180.152 21.3269C179.517 20.6291 178.788 20.1018 177.812 20.1018C176.588 20.1018 175.828 20.6911 175.828 22.4745V30.4767H170.791V15.7906H175.828V16.8606C176.696 16.0232 177.673 15.4959 178.959 15.4959C180.028 15.4959 180.741 15.744 181.33 16.1162L180.152 21.3269Z" fill="white"/>
<path d="M192.118 30.4766V29.4996C191.219 30.1975 190.165 30.7868 188.46 30.7868C185.236 30.7868 183.702 28.6312 183.702 24.7697V15.7905H188.77V24.1338C188.77 26.0413 189.406 26.5376 190.444 26.5376C191.483 26.5376 192.118 26.0413 192.118 24.1803V15.7905H197.187V30.4766H192.118Z" fill="white"/>
<path d="M209.23 30.4764V22.1331C209.23 20.2256 208.594 19.7293 207.556 19.7293C206.486 19.7293 205.851 20.2256 205.851 22.0865V30.4764H200.813V15.7902H205.851V16.7673C206.781 16.0694 207.804 15.4801 209.54 15.4801C212.764 15.4801 214.298 17.6357 214.298 21.4972V30.4764H209.23Z" fill="white"/>
<path d="M224.109 30.7866C219.801 30.7866 217.228 28.0416 217.228 23.0945C217.228 18.5817 219.522 15.4801 224.218 15.4801C226.992 15.4801 228.573 16.7673 229.86 18.8298L226.388 21.4662C225.69 20.179 225.21 19.5587 224.125 19.5587C222.838 19.5587 222.187 20.8459 222.187 23.1721C222.187 25.4983 222.885 26.6924 224.264 26.6924C225.21 26.6924 225.892 26.1651 226.806 24.7849L229.999 27.2817C228.294 29.794 226.713 30.7866 224.109 30.7866Z" fill="white"/>
<path d="M241.267 30.4766V22.1332C241.267 20.2257 240.632 19.7295 239.594 19.7295C238.524 19.7295 237.889 20.2257 237.889 22.0867V30.4766H232.851V12.084L237.889 10.0679V16.7674C238.819 16.0696 239.842 15.4803 241.577 15.4803C244.801 15.4803 246.336 17.6359 246.336 21.4974V30.4766H241.267Z" fill="white"/>
<path d="M8.4165 2.5V13.6968H19.6072V36.075H30.7825V13.6968H41.9732V2.5H8.4165Z" fill="white"/>
<path d="M53.1484 24.8783V13.6969L41.9732 13.6968L41.9732 36.0751H75.5144V24.8783H53.1484Z" fill="white"/>
<path d="M75.5144 2.5H53.1484L53.1484 13.6969L75.5144 13.6968V2.5Z" fill="white"/>
</svg>
