<svg width="173" height="40" viewBox="0 0 173 40" fill="none" xmlns="http://www.w3.org/2000/svg">
<path d="M34.7613 28.4021V10.3218C34.7613 9.38119 34.9697 8.67574 35.4125 8.20545C35.8293 7.73515 36.4023 7.5 37.0796 7.5C37.7828 7.5 38.3559 7.73515 38.7726 8.20545C39.2155 8.67574 39.4238 9.38119 39.4238 10.3218V28.4021C39.4238 29.3427 39.2155 30.0743 38.7726 30.5446C38.3298 31.0149 37.7828 31.25 37.0796 31.25C36.4023 31.25 35.8553 31.0149 35.4386 30.5446C34.9958 30.0481 34.7613 29.3427 34.7613 28.4021Z" fill="white"/>
<path d="M160.805 31.2239C154.293 31.2239 148.98 25.8938 148.98 19.3619C148.98 12.83 154.293 7.5 160.805 7.5C167.317 7.5 172.631 12.83 172.631 19.3619C172.631 25.92 167.343 31.2239 160.805 31.2239ZM160.805 12.3075C156.924 12.3075 153.773 15.4689 153.773 19.3619C153.773 23.2549 156.924 26.4164 160.805 26.4164C164.686 26.4164 167.838 23.2549 167.838 19.3619C167.838 15.495 164.686 12.3075 160.805 12.3075Z" fill="white"/>
<path d="M107.746 31.2239C101.235 31.2239 95.9209 25.8938 95.9209 19.3619C95.9209 12.83 101.235 7.5 107.746 7.5C114.258 7.5 119.572 12.83 119.572 19.3619C119.572 25.92 114.258 31.2239 107.746 31.2239ZM107.746 12.3075C103.865 12.3075 100.714 15.4689 100.714 19.3619C100.714 23.2549 103.865 26.4164 107.746 26.4164C111.628 26.4164 114.779 23.2549 114.779 19.3619C114.779 15.495 111.628 12.3075 107.746 12.3075Z" fill="white"/>
<path d="M145.203 19.3619C145.203 16.7492 144.343 14.3193 142.911 12.3597C140.827 9.51183 137.493 7.63064 133.716 7.5C133.586 7.5 133.481 7.5 133.351 7.5H127.412C126.396 7.5 125.667 7.73515 125.224 8.20545C124.781 8.67574 124.547 9.40732 124.547 10.4524V28.2976C124.547 29.3427 124.781 30.0743 125.224 30.5446C125.667 31.0149 126.422 31.25 127.412 31.25H133.351C133.481 31.25 133.586 31.25 133.716 31.25C137.493 31.1455 140.801 29.2643 142.911 26.3903C144.343 24.4046 145.203 21.9747 145.203 19.3619ZM134.211 26.3641C133.638 26.3903 133.013 26.4164 132.361 26.4164H129.262V12.3075H132.361C133.013 12.3075 133.638 12.3075 134.211 12.3597C136.268 12.5949 138.04 13.7445 139.16 15.3644C139.941 16.4879 140.41 17.8727 140.41 19.3619C140.41 20.8512 139.941 22.2098 139.16 23.3333C138.04 25.0055 136.268 26.129 134.211 26.3641Z" fill="white"/>
<path d="M89.2266 7.60445C88.367 7.34317 87.4293 7.68283 86.9344 8.44053L79.7974 19.3357L72.6604 8.44053C72.1655 7.68283 71.2278 7.34317 70.3682 7.60445C69.5087 7.86572 68.9096 8.70181 68.9096 9.61627V28.9768C68.9096 30.1264 69.8212 31.0932 70.9673 31.0932C72.0874 31.0932 73.0251 30.1526 73.0251 28.9768V16.514L78.0783 24.2477C78.0783 24.2477 78.0783 24.2477 78.0783 24.2739C78.0783 24.2739 78.0783 24.3 78.1043 24.3C78.1304 24.3522 78.1564 24.4045 78.2085 24.4306C78.2346 24.4568 78.2346 24.4568 78.2606 24.4829C78.2867 24.509 78.3127 24.5613 78.3388 24.5874C78.3648 24.6135 78.3909 24.6396 78.4169 24.6658C78.4429 24.6919 78.469 24.6919 78.469 24.718C78.5211 24.7442 78.5471 24.7703 78.5992 24.8225L78.6253 24.8487C78.6774 24.8748 78.7295 24.9009 78.7555 24.927C78.7816 24.927 78.7816 24.9532 78.7816 24.9532C78.8076 24.9793 78.8597 24.9793 78.8858 25.0054C79.0941 25.1099 79.3025 25.1622 79.5369 25.1883C79.589 25.1883 79.6151 25.1883 79.6672 25.1883C79.6932 25.1883 79.7193 25.1883 79.7453 25.1883C79.7714 25.1883 79.7974 25.1883 79.8235 25.1883C79.8756 25.1883 79.9016 25.1883 79.9537 25.1883C80.1621 25.1622 80.3965 25.1099 80.6049 25.0054C80.6309 24.9793 80.683 24.9793 80.7091 24.9532L80.7351 24.927C80.7872 24.9009 80.8393 24.8748 80.8654 24.8487C80.8914 24.8487 80.8914 24.8225 80.8914 24.8225C80.9435 24.7964 80.9696 24.7703 81.0217 24.718C81.0477 24.6919 81.0738 24.6919 81.0738 24.6658C81.0998 24.6396 81.1258 24.6135 81.1519 24.5874C81.1779 24.5613 81.204 24.5351 81.23 24.4829C81.2561 24.4568 81.2561 24.4568 81.2821 24.4306C81.3082 24.3784 81.3603 24.3522 81.3863 24.3L81.4124 24.2739C81.4124 24.2739 81.4124 24.2739 81.4124 24.2477L86.4656 16.514V28.9768C86.4656 30.1264 87.3772 31.0932 88.5233 31.0932C89.6434 31.0932 90.5811 30.1526 90.5811 28.9768V9.61627C90.6853 8.70181 90.0862 7.86572 89.2266 7.60445Z" fill="white"/>
<path d="M61.9288 30.5184H46.5869C45.7794 30.5184 44.8938 30.022 44.5552 29.2382C44.2165 28.4543 44.1644 27.3831 44.8677 26.5209L57.3966 11.9156H47.0297C45.9096 11.9156 44.9719 10.9227 44.9719 9.72085C44.9719 8.51898 45.8836 7.76128 47.0297 7.76128H60.9911C61.7986 7.76128 62.6321 7.89191 63.3615 8.70187C64.0387 9.43344 63.9866 11.0272 63.2573 11.9678L51.1452 26.129H61.9288C63.0749 26.129 63.8824 27.1218 63.8824 28.3237C63.8824 29.5256 63.0749 30.5184 61.9288 30.5184Z" fill="white"/>
<path d="M19.4974 31.2239C16.0852 31.2239 13.0116 29.8652 10.7976 27.4092C8.87004 25.2668 7.75 22.4189 7.75 19.5971C7.75 10.7921 15.0433 7.5 19.6537 7.5C24.186 7.5 27.494 9.72085 27.6503 9.82536C28.6662 10.5308 28.9527 11.9156 28.2494 12.9607C27.5722 14.0058 26.1917 14.267 25.1758 13.5877C25.1237 13.5616 22.7534 12.0201 19.6537 12.0201C16.7624 12.0201 12.7772 13.9274 12.7772 19.5971C12.7772 22.8108 15.1735 26.6254 19.5495 26.6254C22.024 26.6254 23.7432 25.9722 24.759 25.319V21.9747H21.3729C20.1486 21.9747 19.1588 20.9557 19.1588 19.7277C19.1588 18.4736 20.1486 17.4807 21.3729 17.4807H27.0252C28.2494 17.4807 29.2392 18.4997 29.2392 19.7277V26.4425C29.2392 27.0434 29.0048 27.6444 28.562 28.0624C27.0773 29.5256 23.7953 31.2239 19.4974 31.2239Z" fill="white"/>
</svg>
