<svg width="123" height="40" viewBox="0 0 123 40" fill="none" xmlns="http://www.w3.org/2000/svg">
<path fill-rule="evenodd" clip-rule="evenodd" d="M77.8031 13.1382C75.9716 13.1382 74.5217 13.5185 73.0718 14.3552C73.0718 10.172 73.0718 6.29299 73.2244 5L64.2961 6.59722V7.3578L65.2118 7.50992C66.4328 7.7381 66.8143 8.42262 67.0433 10.0198C67.2722 13.2143 67.1959 30.0232 67.0433 32.8373C69.4089 33.3697 71.9272 33.75 74.4454 33.75C81.466 33.75 85.6631 29.4147 85.6631 22.5694C85.7394 17.0933 82.3054 13.1382 77.8031 13.1382ZM74.7506 32.2288C74.2165 32.2288 73.5297 32.2288 73.1481 32.0767C72.9955 30.2513 72.9192 22.4934 72.9955 15.6481C73.7586 15.42 74.2928 15.2679 74.9796 15.2679C77.8794 15.2679 79.4819 18.6905 79.4819 22.8737C79.4819 28.1978 77.4978 32.2288 74.7506 32.2288Z" fill="white"/>
<path fill-rule="evenodd" clip-rule="evenodd" d="M31.0247 5.53228H7.75V6.74921L9.04728 6.90132C10.8024 7.1295 11.4129 8.19431 11.7181 10.7042C12.0997 15.4198 11.9471 24.0144 11.7181 28.1216C11.4892 30.6315 10.8024 31.7724 9.04728 31.9245L7.75 32.1526V33.2175H22.7069V32.1526L21.1043 31.9245C19.3492 31.7724 18.7387 30.6315 18.4335 28.1216C18.2809 26.3722 18.2045 23.6341 18.2045 20.2115L21.4096 20.3636C23.3937 20.3636 24.3094 21.9608 24.6909 24.1665H25.9119V14.7353H24.6909C24.3094 16.941 23.3937 18.5382 21.4096 18.5382L18.2045 18.6903C18.2045 14.2029 18.3572 10.0197 18.4335 7.50979H23.0884C26.675 7.50979 28.5065 9.71548 29.8037 13.6705L31.101 13.2902L31.0247 5.53228Z" fill="white"/>
<path fill-rule="evenodd" clip-rule="evenodd" d="M38.5032 12.9101C45.1422 12.9101 48.4235 17.3975 48.4235 23.3301C48.4235 28.9584 44.7606 33.75 38.1216 33.75C31.4826 33.75 28.2012 29.2626 28.2012 23.3301C28.2012 17.6257 31.9404 12.9101 38.5032 12.9101ZM38.1216 14.2031C35.2218 14.2031 34.4587 18.1581 34.4587 23.254C34.4587 28.2739 35.756 32.3049 38.4268 32.3049C41.4793 32.3049 42.2424 28.3499 42.2424 23.254C42.2424 18.3102 40.9451 14.2031 38.1216 14.2031Z" fill="white"/>
<path fill-rule="evenodd" clip-rule="evenodd" d="M87.4182 23.4062C87.4182 18.0061 90.8522 12.8341 97.5675 12.8341C103.138 12.8341 105.733 16.9412 105.733 22.3414H93.4467C93.2941 27.2091 95.6598 30.7838 100.467 30.7838C102.604 30.7838 103.672 30.2514 104.97 29.3387L105.504 30.0233C104.207 31.8487 101.307 33.6741 97.5675 33.6741C91.6916 33.7501 87.4182 29.4908 87.4182 23.4062ZM93.5231 20.9723L99.7042 20.8202C99.7042 18.1582 99.3227 14.2031 97.0333 14.2031C94.8203 14.2031 93.6757 17.93 93.5231 20.9723Z" fill="white"/>
<path fill-rule="evenodd" clip-rule="evenodd" d="M121.529 13.9749C119.926 13.2904 117.866 12.9101 115.424 12.9101C110.54 12.9101 107.488 15.8003 107.488 19.2229C107.488 22.6456 109.701 24.0907 112.906 25.1555C116.187 26.3724 117.103 27.2851 117.103 28.8063C117.103 30.4035 115.882 31.8486 113.822 31.8486C111.303 31.8486 109.472 30.4035 108.022 26.4485L107.106 26.6766L107.259 32.4571C108.861 33.1416 111.761 33.674 114.28 33.674C119.469 33.674 122.75 31.012 122.75 26.9809C122.75 24.2428 121.3 22.6456 117.866 21.3526C114.203 19.9075 112.83 18.9948 112.83 17.2454C112.83 15.4961 114.051 14.3552 115.577 14.3552C117.942 14.3552 119.545 15.8003 120.766 19.3751L121.682 19.1469L121.529 13.9749Z" fill="white"/>
<path fill-rule="evenodd" clip-rule="evenodd" d="M65.5934 13.4426C63.3804 12.1496 59.4122 12.7581 57.2755 17.5497L57.4282 12.9102L48.5761 14.6595V15.4201L49.4919 15.5722C50.7128 15.7243 51.247 16.3328 51.3233 18.0821C51.5523 21.2766 51.4759 26.7528 51.3233 29.5669C51.1707 31.1642 50.6365 31.9247 49.4919 32.0769L48.5761 32.229V33.2938H60.8621V32.229L59.2596 32.0769C57.9623 31.9247 57.5045 31.1642 57.4282 29.5669C57.1992 27.057 57.1992 22.0372 57.2755 18.9188C57.9623 18.0061 60.8621 17.1694 63.4567 18.9188L65.5934 13.4426Z" fill="white"/>
</svg>
