<svg width="275" height="40" viewBox="0 0 275 40" fill="none" xmlns="http://www.w3.org/2000/svg">
<g clip-path="url(#clip0_530_14660)">
<path fill-rule="evenodd" clip-rule="evenodd" d="M13.3626 14.6436C13.9042 13.177 14.6488 12.0263 15.5964 11.1801C15.7205 11.1237 15.8559 11.1012 15.9913 11.0786C16.1267 11.0673 16.4538 11.056 16.9841 11.056C17.2774 11.056 17.5256 11.0786 17.7512 11.1125C17.9769 11.1576 18.2025 11.2366 18.4394 11.3494C18.6763 11.4735 18.9584 11.6314 19.2743 11.8458L15.2467 15.0498L16.1943 15.8056V26.4781C15.1677 25.9817 14.3103 25.1807 13.7462 24.1879C12.9565 22.8228 12.5616 20.9839 12.5616 18.6937C12.5504 17.4528 12.8211 16.099 13.3626 14.6436ZM12.9903 10.5484C13.2273 10.5484 13.5319 10.5935 13.9042 10.6725C14.2765 10.7514 14.6149 10.8304 14.9308 10.9094C12.7196 11.8909 11.0048 13.5042 9.79763 15.7718C8.74843 17.7686 8.20691 19.9911 8.21819 22.2588C8.21819 25.1581 9.22226 27.6401 11.2417 29.7047C13.2611 31.7692 15.7205 32.8071 18.6086 32.8071C21.3952 32.8071 23.7644 31.7354 25.6823 29.6031C27.6001 27.4709 28.5704 24.9551 28.5704 22.0557C28.3109 22.6649 28.0063 23.1726 27.6791 23.5787C27.2617 24.0751 26.7879 24.5377 26.2802 24.9438C25.8853 25.2822 25.5243 25.5417 25.2084 25.7109C24.8925 25.8802 24.4864 26.072 23.9787 26.2863V12.0488C24.6105 11.7894 25.1182 11.5186 25.5017 11.2366C25.8853 10.9658 26.3027 10.5597 26.754 10.0294C27.916 8.7433 28.5591 7.29925 28.6945 5.71981C27.8483 6.27261 27.0925 6.67875 26.4156 6.94951C25.7387 7.20899 24.9828 7.3895 24.1479 7.46847C24.0126 7.46847 23.8321 7.47975 23.5951 7.50232C22.67 7.50232 21.2937 7.1413 19.466 6.41928C17.6384 5.69725 16.1943 5.33623 15.1339 5.33623C13.0468 5.33623 11.3771 6.31774 10.1135 8.25819C8.98535 9.99557 8.40998 12.0601 8.40998 14.4631C8.56792 13.7298 8.9515 13.0303 9.56071 12.3647C10.012 11.8683 10.5309 11.4396 11.1063 11.1012C11.6704 10.7402 12.3022 10.5484 12.9903 10.5484ZM32.2369 32.604L35.6778 28.7683L33.9405 26.9519V16.6743L34.9332 16.0087L37.6973 18.1071V31.6677C37.6973 32.4348 37.6521 33.0892 37.5619 33.6307C37.4829 34.1384 37.2686 34.6235 36.9527 35.0296L35.9824 36.2368C35.5425 36.7783 35.0009 37.207 34.3466 37.5229C35.6666 37.3875 36.7496 37.0942 37.5844 36.6316C38.4306 36.1691 39.2993 35.4357 40.1905 34.443C40.8448 33.6984 41.3412 32.9651 41.6684 32.2318C42.0069 31.4759 42.2212 30.6749 42.3228 29.8626V14.6662L41.1382 14.7452L37.4265 12.2519L34.7415 14.4631L33.8728 13.9893V6.47568L33.083 4.77215L29.5632 8.21306V27.6965L28.4914 28.9601L32.2369 32.604ZM44.015 28.2944L50.3779 32.322L56.4249 25.9591L53.1419 28.2944L49.1143 25.4063V22.7213L56.3121 17.3399L51.7317 11.1689L44.4211 16.2682V27.4145L44.015 28.2944ZM65.1682 8.41613V15.8056C64.6379 15.862 64.2092 15.9523 63.8821 16.0877C63.5549 16.2231 63.2052 16.4487 62.8329 16.7646C61.7724 17.5881 61.2534 18.6373 61.2534 19.9234C61.2422 20.3296 61.2986 20.7244 61.4114 21.108C61.7837 20.7921 62.1447 20.5778 62.4944 20.4762C62.8554 20.3747 63.2954 20.3183 63.8257 20.3183C64.0851 20.3183 64.2995 20.3521 64.4574 20.3973C64.6154 20.4537 64.8523 20.5552 65.1682 20.7132V27.9786L70.6285 33.4727L75.6489 28.3734L81.6959 33.4727L90.5069 24.9325V10.3115L85.0465 6.12595L81.019 9.75865L75.5248 6.12595L70.6285 10.2325V7.82948C70.6285 7.03977 70.0644 6.14851 68.925 5.14445C68.5865 4.90753 68.2594 4.65933 67.9548 4.41114C67.6502 4.16294 67.4697 3.80193 67.4245 3.33938C67.3794 2.96708 67.3568 2.59479 67.3456 2.21121C67.3456 1.31996 67.6502 0.597929 68.2594 0.0789718C68.0337 0.033845 67.8081 0.0112817 67.5825 0C66.3979 0 65.3487 0.496394 64.4462 1.4779C63.5323 2.47069 63.0811 3.56501 63.0811 4.78343C63.0811 4.96394 63.1036 5.22342 63.16 5.5393C63.3857 6.82542 64.0513 7.78436 65.1682 8.41613ZM91.5674 28.4975L96.4636 31.9384L100.017 28.5765L104.248 31.5436L107.881 27.6288H106.617L105.004 25.9591V14.3841L104.135 14.5421L100.029 11.1012L92.2442 16.4713V27.8093L91.5674 28.4975ZM115.146 11.8683C114.65 11.6314 114.176 11.3268 113.747 10.9771L107.305 15.5236V23.1951L107.903 23.669H111.739L106.764 32.322C107.531 31.6677 108.118 31.2277 108.546 31.0133C109.144 30.72 109.81 30.5733 110.487 30.5733C111.333 30.5733 112.01 30.6749 112.54 30.8667C113.07 31.0585 113.612 31.4082 114.165 31.9159L120.482 26.9406V19.1563L120.008 18.6825H115.778V18.2876L119.535 11.6878C119.14 11.9247 118.824 12.0601 118.587 12.1052C118.203 12.1504 117.82 12.1729 117.436 12.1616H116.601C116.094 12.1729 115.597 12.0714 115.146 11.8683ZM125.164 32.0512L128.639 28.1816L126.902 26.3653V16.0877L127.849 15.4108L130.658 17.543V31.0585C130.67 31.7128 130.625 32.3671 130.523 33.0215C130.433 33.5292 130.218 34.003 129.869 34.4204C129.654 34.6799 129.372 35.0635 129 35.5711C128.526 36.1239 127.951 36.5752 127.296 36.9137C128.504 36.8121 129.587 36.5188 130.523 36.0337C131.459 35.5486 132.339 34.8265 133.152 33.8789C133.761 33.1681 134.235 32.4235 134.573 31.6451C134.912 30.8667 135.137 30.0657 135.25 29.2534V14.0683L134.099 14.1924L130.343 11.6991L127.657 13.8765L126.789 13.4026V5.92288L126.033 4.1855L122.479 7.62641V27.155L121.407 28.3734L125.164 32.0512ZM144.174 8.69817L140.62 5.81006L137.732 8.96893L140.733 11.6991L144.174 8.69817ZM138.601 17.622V28.3734L137.845 29.5242H139.187L142.267 32.1302L145.505 29.1631L149.657 32.5251L153.289 28.4975L152.139 27.0422V16.9676L153.086 16.4938L155.185 18.784V28.6555L158.863 31.8595L162.416 27.8319H160.758L159.81 26.2863V15.5349L160.284 14.5421L159.336 14.7452L155.704 11.857L152.15 15.5349L147.998 12.2519L144.557 16.0877H145.9L147.051 17.4302V27.3017L144.761 28.0914L143.294 26.9406V15.8733L143.768 15.1964L139.661 12.1504L136.299 15.7041L137.45 16.0651L138.601 17.622ZM209.664 28.0237L208.525 26.5571V16.4825L209.472 16.0087L211.571 18.2989V28.2155L215.249 31.3743L218.802 27.3468H217.144L216.196 25.8012V15.0498L216.67 14.1021L215.722 14.26L212.09 11.3719L208.536 15.0498L204.384 11.7668L200.943 15.6026H202.286L203.437 16.9451V26.8617L202.015 28.757L206.404 31.6451L209.664 28.0237ZM163.184 28.1027C163.714 28.1027 164.188 28.1703 164.628 28.3057C165.068 28.4411 165.485 28.6667 165.914 28.9939C166.331 29.3211 166.647 29.637 166.839 29.9416C167.031 30.2462 167.2 30.6636 167.335 31.1826L165.282 33.8338L163.105 36.7557C163.657 36.4398 164.131 36.248 164.526 36.1803C164.921 36.1127 165.496 36.0788 166.263 36.0788C167.155 36.1578 167.922 36.3721 168.554 36.7106C169.185 37.049 169.761 37.568 170.291 38.2562C171.555 37.7823 173.021 36.7219 174.702 35.0973C176.383 33.4615 177.218 32.1189 177.218 31.0697C177.218 30.8892 177.026 30.3139 176.643 29.3775C176.259 28.4185 176.067 27.4032 176.067 26.3653V14.0683L170.573 10.6273L163.657 15.5236V27.2227L163.184 28.1027ZM176.823 14.5872H179.113V28.3057L178.56 29.3775H179.903L182.791 31.5887L186.503 27.3581H184.878L183.806 26.2073V14.858L186.142 11.9699H183.806V4.42242L179.102 8.81099V11.8119L176.823 14.5872ZM186.819 28.1027L191.715 31.5774L200.255 25.6094V13.9893L199.387 14.1924L195.269 10.7176L187.484 16.0877V27.437L186.819 28.1027ZM226.936 8.4951V12.1729C226.248 12.1729 225.673 12.2406 225.199 12.3873C224.725 12.5339 224.274 12.816 223.834 13.2334C223.394 13.6508 223.146 14.1472 223.067 14.7C222.988 15.2528 222.943 15.9749 222.943 16.8774C222.943 17.2497 222.931 17.4979 222.898 17.6333C223.473 16.7082 224.285 16.3246 225.312 16.4825C226 16.5841 226.542 16.8774 226.936 17.3512V23.4772C225.729 24.1089 224.669 24.9438 223.778 25.9704C222.773 27.155 222.097 28.3734 221.758 29.6482C222.209 29.2985 222.683 28.9826 223.18 28.7232C223.574 28.5201 224.127 28.3283 224.838 28.1139C225.097 28.035 225.402 27.9447 225.752 27.8545C226.09 27.7642 226.485 27.7191 226.936 27.7191V39.531L232.115 35.3004L233.852 36.5639V29.84L236.063 30.5959L243.532 25.4176V8.02127L238.748 4.1855L233.852 8.29203V6.12595L232.904 5.33623V8.81099L232.115 9.36379V5.73109L228.087 2.63991L223.304 7.34437C223.699 7.10746 224.105 6.98336 224.522 6.98336C224.861 6.98336 225.199 7.03977 225.515 7.1413C226.226 7.41206 226.699 7.86333 226.936 8.4951ZM244.209 28.4975L249.105 31.9384L257.679 25.9704V14.3841L256.81 14.5421L252.659 11.1012L244.874 16.4713V27.8093L244.209 28.4975ZM266.896 11.6991C266.388 11.4509 265.892 11.1576 265.43 10.8304L259.022 15.3318V23.0033L259.574 23.4772H263.41L258.435 32.1302C258.988 31.6564 259.45 31.3067 259.823 31.0585C260.511 30.6072 261.3 30.3816 262.192 30.3816C263.015 30.3816 263.681 30.4831 264.211 30.6749C264.741 30.878 265.283 31.2164 265.836 31.7241L272.165 26.7489V18.9645L271.691 18.4907H267.46V18.0958L271.217 11.496C270.822 11.7329 270.506 11.8683 270.269 11.9135C270.032 11.9586 269.649 11.9699 269.119 11.9699H268.295C267.754 11.9699 267.291 11.8796 266.896 11.6991ZM272.266 14.779H274.556V28.4975L274.004 29.5693H275.346L278.189 31.7805L281.946 27.5499H280.321L279.25 26.3991V15.061L281.54 12.1729H279.25V4.62549L274.568 9.01406V12.015L272.266 14.779ZM96.9374 15.14L100.017 17.4302V26.636L99.0246 27.7078L96.9262 25.8915L96.9374 15.14ZM173.461 31.3405C174.093 31.7918 174.409 32.3559 174.409 33.044C174.409 33.3599 174.375 33.5968 174.33 33.7548C174.172 33.9917 174.048 34.1496 173.969 34.2286C173.754 34.443 173.484 34.5783 173.179 34.6235C172.841 34.6799 172.389 34.5107 171.837 34.1271C171.284 33.7435 170.449 33.5517 169.343 33.5517C168.633 33.5517 167.99 33.6194 167.403 33.7548C166.828 33.8902 166.218 34.1158 165.587 34.4317L171.363 27.3129V28.2268C171.363 28.757 171.408 29.1857 171.498 29.5354C171.588 29.8739 171.791 30.2123 172.107 30.5282C172.559 30.799 173.01 31.081 173.461 31.3405ZM168.362 14.6662L171.363 16.8774V25.8125L170.494 26.7601L168.362 24.6279V14.6662ZM49.1143 21.5819V15.8056L52.0024 19.4383L49.1143 21.5819ZM116.827 15.061L114.142 19.8445H112.123V14.6662C112.912 15.1626 113.77 15.4221 114.695 15.4221C115.428 15.4108 116.139 15.298 116.827 15.061ZM192.189 14.7452L195.269 17.0805V26.2863L194.287 27.3581L192.189 25.4966V14.7452ZM112.867 22.7213H115.755V27.8206C115.349 27.674 114.932 27.5611 114.514 27.4822C114.232 27.4483 113.668 27.4258 112.799 27.4258C112.292 27.4145 111.795 27.4709 111.299 27.5837C110.882 27.6852 110.374 27.8657 109.799 28.1027L112.867 22.7213ZM232.115 11.9699L232.904 11.293V33.8563L232.115 33.3825V11.9699ZM233.852 10.7063L236.266 9.16072L238.004 10.4243V25.2822C237.18 24.8084 236.74 24.5602 236.661 24.5264L235.793 24.2443C235.149 24.0864 234.495 23.9284 233.852 23.7705V10.7063ZM22.67 12.4437C22.9295 12.4437 23.1439 12.4211 23.3018 12.3647V26.7489C22.309 27.2453 21.2147 27.5047 20.0978 27.5047C19.4435 27.5047 18.7779 27.4258 18.1235 27.2678C17.4692 27.1099 16.9502 26.8955 16.5779 26.636L21.0793 22.1347V12.2519C21.2711 12.3534 21.4742 12.4211 21.6885 12.4324C21.9142 12.4437 22.0608 12.455 22.1398 12.455L22.67 12.4437ZM249.59 15.14L252.67 17.4302V26.636L251.722 27.7078L249.59 25.8915V15.14ZM70.6172 11.3832L72.0839 10.2325L75.1299 13.3124V27.5047L73.9002 28.7683L70.6172 25.6094V11.3832ZM267.528 15.14C267.866 15.0836 268.205 14.9934 268.509 14.858L265.824 19.6414H263.805V14.4631C264.583 14.9595 265.486 15.219 266.411 15.219C266.817 15.219 267.189 15.1851 267.528 15.14ZM264.561 22.5295H267.449V27.6288C267.043 27.4822 266.625 27.3694 266.208 27.2904C265.926 27.2453 265.362 27.234 264.482 27.234C263.974 27.2227 263.467 27.2791 262.981 27.3919C262.485 27.5273 261.989 27.6965 261.515 27.9109L264.561 22.5295ZM81.0077 11.3832L82.4405 10.2325L85.5204 13.3124V27.5047L84.2568 28.7683L81.019 25.6094L81.0077 11.3832Z" fill="white"/>
</g>
<defs>
<clipPath id="clip0_530_14660">
<rect width="274.167" height="40" fill="white" transform="translate(0.208252)"/>
</clipPath>
</defs>
</svg>
