<svg width="191" height="40" viewBox="0 0 191 40" fill="none" xmlns="http://www.w3.org/2000/svg">
<path d="M169.745 31.9149H176.248C176.501 32.7349 177.359 33.5548 178.966 33.5548C181.144 33.5548 181.894 32.2026 181.894 30.2031V28.7789H181.75C180.675 30.0304 179.248 30.9511 177.142 30.9511C172.997 30.9511 169.391 27.887 169.391 21.8955C169.391 16.4076 172.355 12.1279 176.825 12.1279C179.399 12.1279 180.971 13.1637 182.009 14.8036H182.117V12.7033H188.549V29.3112C188.549 32.3752 187.474 34.7632 185.867 36.1945C184.187 37.6906 181.793 38.2948 179.075 38.2948C173.963 38.2948 170.394 36.1874 169.745 31.9149ZM182.182 21.5719C182.182 19.1839 181.043 17.2563 179.075 17.2563C177.178 17.2563 175.967 18.9681 175.967 21.5719C175.967 24.1397 177.186 25.9882 179.075 25.9882C181.036 25.9954 182.182 24.1037 182.182 21.5719ZM162.21 15.976H162.318C163.71 13.3003 165.534 12.3077 167.856 12.3077C168.389 12.3077 168.75 12.3797 168.966 12.4876V18.3711H168.822C164.856 17.6591 162.535 19.5507 162.535 23.8591V31.879H155.779V12.7033H162.21V15.976ZM8.5415 5H21.7648C24.2667 5 26.1918 5.60418 27.5545 6.71185C29.0903 7.95618 29.9122 9.81189 29.9122 12.02C29.9122 14.5878 28.874 16.1918 26.7326 17.1916V17.2994C29.5229 18.2273 31.1307 20.7231 31.1307 23.7513C31.1307 26.6355 30.0204 28.8868 28.2034 30.239C26.6677 31.3467 24.6705 31.879 22.0244 31.879H8.5415V5ZM21.1231 25.9234C22.731 25.9234 23.9062 24.9596 23.9062 23.1758C23.9062 21.3201 22.6228 20.4282 21.0871 20.4282H15.867V25.9162H21.1231V25.9234ZM20.4382 15.5157C21.8658 15.5157 22.904 14.7317 22.904 13.1637C22.904 11.6316 21.8297 10.8836 20.4021 10.8836H15.867V15.5157H20.4382Z" fill="white"/>
<path d="M32.342 5H39.2709V31.879H32.342V5ZM40.5975 22.3199C40.5975 16.2637 44.5271 12.1639 50.6052 12.1639C56.6833 12.1639 60.5407 16.2637 60.5407 22.3199C60.5407 28.4193 56.6833 32.4759 50.6052 32.4759C44.5271 32.4831 40.5975 28.4193 40.5975 22.3199ZM53.6767 22.3199C53.6767 18.9681 52.6024 16.8679 50.5331 16.8679C48.4638 16.8679 47.4616 18.9681 47.4616 22.3199C47.4616 25.7077 48.4638 27.8079 50.5331 27.8079C52.6024 27.8151 53.6767 25.7077 53.6767 22.3199ZM61.3266 22.3199C61.3266 16.2637 65.2561 12.1639 71.3342 12.1639C77.4123 12.1639 81.2697 16.2637 81.2697 22.3199C81.2697 28.4193 77.4123 32.4759 71.3342 32.4759C65.2561 32.4831 61.3266 28.4193 61.3266 22.3199ZM74.4057 22.3199C74.4057 18.9681 73.3314 16.8679 71.2621 16.8679C69.1928 16.8679 68.1906 18.9681 68.1906 22.3199C68.1906 25.7077 69.1928 27.8079 71.2621 27.8079C73.3314 27.8151 74.4057 25.7077 74.4057 22.3199ZM82.5891 12.7033H89.0205V15.5876H89.1287C90.4121 13.3435 92.1641 12.1279 94.9184 12.1279C97.3482 12.1279 99.1723 13.3363 100.102 15.4437H100.211C101.782 12.9119 103.823 12.1279 106.181 12.1279C110.651 12.1279 112.576 15.4078 112.576 19.8241V31.8718H105.82V21.0396C105.82 19.076 105.214 17.7957 103.498 17.7957C101.818 17.7957 100.96 19.3637 100.96 21.4352V31.879H94.1974V21.0396C94.1974 19.076 93.5917 17.7957 91.8757 17.7957C90.1958 17.7957 89.3378 19.3637 89.3378 21.4352V31.879H82.5891V12.7033ZM120.824 29.3831H120.752V31.879H114.321V5H121.077V14.6957H121.185C122.468 13.0198 124.184 12.1279 126.65 12.1279C131.474 12.1279 134.264 16.4795 134.264 22.248C134.264 28.7717 131.228 32.5119 126.225 32.5119C124.148 32.5191 122.007 31.5193 120.824 29.3831ZM127.4 22.1833C127.4 19.0832 126.261 17.0837 124.22 17.0837C122.151 17.0837 120.824 19.0832 120.824 22.1833C120.824 25.2473 122.144 27.2828 124.22 27.2828C126.289 27.2757 127.4 25.2833 127.4 22.1833ZM135.122 22.2552C135.122 16.2637 139.087 12.0991 144.841 12.0991C147.696 12.0991 149.917 12.991 151.597 14.595C153.81 16.7312 154.813 20.083 154.741 24.039H141.842C142.13 26.4269 143.269 27.6425 145.31 27.6425C146.492 27.6425 147.523 27.1102 147.956 25.8227H154.459C153.32 30.2031 149.924 32.4184 145.101 32.4184C139.123 32.4112 135.122 28.3833 135.122 22.2552ZM141.842 20.2556H147.985C147.877 17.9396 146.593 16.724 144.985 16.724C143.125 16.724 142.087 18.0475 141.842 20.2556Z" fill="white"/>
</svg>
