<svg width="20" height="20" viewBox="0 0 20 20" fill="#F9FBFD" xmlns="http://www.w3.org/2000/svg">
<path d="M18.7117 11.5609C18.8078 11.0336 18.8594 10.4945 18.8594 9.95547C18.8594 8.76016 18.625 7.6 18.1633 6.51016C17.718 5.45547 17.0781 4.50859 16.2649 3.69531C15.4584 2.88677 14.5023 2.24279 13.45 1.79922C12.3578 1.3375 11.2 1.10312 10.0047 1.10312C9.4422 1.10312 8.87736 1.15703 8.32892 1.2625C7.57005 0.860367 6.72448 0.649577 5.86564 0.648438C4.46642 0.648438 3.14923 1.19453 2.16017 2.18359C1.67211 2.66914 1.28515 3.24662 1.02165 3.88265C0.758147 4.51867 0.623338 5.20062 0.625015 5.88906C0.625015 6.77969 0.854703 7.65625 1.28361 8.42969C1.19689 8.93125 1.15002 9.44453 1.15002 9.95547C1.15002 11.1508 1.38439 12.3109 1.84611 13.4008C2.29142 14.4555 2.92892 15.4023 3.7422 16.2156C4.55548 17.0289 5.50236 17.6664 6.55705 18.1117C7.64923 18.5734 8.80705 18.8078 10.0024 18.8078C10.5227 18.8078 11.043 18.7609 11.5539 18.6695C12.3391 19.1125 13.225 19.3492 14.132 19.3492C15.5313 19.3492 16.8485 18.8055 17.8375 17.8141C18.8289 16.825 19.3727 15.5078 19.3727 14.1086C19.375 13.218 19.1453 12.3391 18.7117 11.5609ZM10.0399 15.3789C6.89455 15.3789 5.4883 13.832 5.4883 12.6742C5.4883 12.0789 5.92658 11.6641 6.53127 11.6641C7.87658 11.6641 7.5297 13.5977 10.0399 13.5977C11.3266 13.5977 12.0367 12.8992 12.0367 12.1844C12.0367 11.7555 11.8258 11.2773 10.9774 11.0688L8.17892 10.3703C5.92658 9.80547 5.51642 8.58672 5.51642 7.44297C5.51642 5.06641 7.7547 4.17344 9.85705 4.17344C11.793 4.17344 14.0758 5.24453 14.0758 6.66953C14.0758 7.28125 13.5461 7.63516 12.9414 7.63516C11.793 7.63516 12.0039 6.04609 9.69064 6.04609C8.5422 6.04609 7.90705 6.56641 7.90705 7.30938C7.90705 8.05234 8.81408 8.28906 9.60158 8.46953L11.6735 8.92891C13.9422 9.43516 14.5164 10.7594 14.5164 12.0063C14.5164 13.9352 13.0328 15.3789 10.0399 15.3789Z"
      fill="#fff"/>
</svg>
