<svg width="40" height="40" viewBox="0 0 40 40" fill="none" xmlns="http://www.w3.org/2000/svg">
<rect width="40" height="40" rx="4" fill="#FFF6E0"/>
<path d="M12.9487 18.875L10.5881 17.5299C9.90139 17.1386 9.91862 16.1429 10.6185 15.7756L19.2263 11.258C19.5321 11.0976 19.899 11.1062 20.1969 11.2809L29.3077 16.625M12.9487 18.875L19.2331 22.0083C19.5356 22.1591 19.8937 22.1469 20.1853 21.9759L26.4872 18.2794M12.9487 18.875V24.4873C12.9487 24.8434 13.1381 25.1727 13.4459 25.3517L19.2151 28.7075C19.526 28.8883 19.9099 28.8883 20.2208 28.7075L25.99 25.3517C26.2978 25.1727 26.4872 24.8434 26.4872 24.4873V18.2794M29.3077 16.625L26.4872 18.2794M29.3077 16.625L30.5536 17.4533C30.8324 17.6386 31 17.9512 31 18.286V25.625" stroke="#D99D56" stroke-width="2" stroke-linejoin="round"/>
</svg>
