<svg width="40" height="40" viewBox="0 0 40 40" fill="none" xmlns="http://www.w3.org/2000/svg">
<rect width="40" height="40" rx="4" fill="#FFF6E0"/>
<path fill-rule="evenodd" clip-rule="evenodd" d="M25 10C25.5523 10 26 10.4477 26 11V12H27C28.6569 12 30 13.3431 30 15V27C30 28.6569 28.6569 30 27 30H13C11.3431 30 10 28.6569 10 27V15C10 13.3431 11.3431 12 13 12H14V11C14 10.4477 14.4477 10 15 10C15.5523 10 16 10.4477 16 11V12H24V11C24 10.4477 24.4477 10 25 10ZM28 20H12V27C12 27.5523 12.4477 28 13 28H27C27.5523 28 28 27.5523 28 27V20ZM25 22C25.5523 22 26 22.4477 26 23V25C26 25.5523 25.5523 26 25 26H23C22.4477 26 22 25.5523 22 25V23C22 22.4477 22.4477 22 23 22H25ZM14 14H13C12.4477 14 12 14.4477 12 15V18H28V15C28 14.4477 27.5523 14 27 14H26V15C26 15.5523 25.5523 16 25 16C24.4477 16 24 15.5523 24 15V14H16V15C16 15.5523 15.5523 16 15 16C14.4477 16 14 15.5523 14 15V14Z" fill="#D99D56"/>
</svg>
