<svg width="40" height="40" viewBox="0 0 40 40" fill="none" xmlns="http://www.w3.org/2000/svg">
<rect width="40" height="40" rx="4" fill="#FFF6E0"/>
<path fill-rule="evenodd" clip-rule="evenodd" d="M20 12C23.5878 12 26.7554 14.4324 29.5113 19.1435L29.7172 19.5011L30 20L29.5113 20.8565C26.7554 25.5676 23.5878 28 20 28C16.4122 28 13.2446 25.5676 10.4887 20.8565L10.2828 20.4989L10 20L10.2828 19.5011C13.0865 14.5556 16.3225 12 20 12ZM20 14C17.2969 14 14.7283 15.9155 12.3053 20C14.7283 24.0845 17.2969 26 20 26C22.6297 26 25.1289 24.1901 27.487 20.3447L27.6948 20.0001L27.4867 19.6553C25.1249 15.8077 22.6259 14 20 14ZM20 17C21.6569 17 23 18.3431 23 20C23 21.6569 21.6569 23 20 23C18.3431 23 17 21.6569 17 20C17 18.3431 18.3431 17 20 17Z" fill="#D99D56"/>
</svg>
