<svg width="1062" height="854" viewBox="0 0 1062 854" fill="none" xmlns="http://www.w3.org/2000/svg">
<path opacity="0.25" d="M265.1 929.181L265.092 929.177L265.084 929.174C137.546 874.17 65.2676 767.82 1.20651 669.604C0.633464 668.725 1.33899 667.572 2.3925 667.689C68.8935 675.032 135.183 684.095 201.142 695.33C203.497 695.731 205.19 693.147 203.945 691.138C122.999 560.442 100.574 414.208 79.2334 273.12C79.0929 272.191 79.9995 271.445 80.8907 271.767C208.834 317.933 311.071 394.277 403 479.278C404.662 480.815 407.395 479.831 407.626 477.548C415.712 397.402 446.502 306.394 489.396 221.422C532.289 136.452 587.259 57.5701 643.658 1.6672C644.228 1.10311 645.141 1.21567 645.556 1.90067C686.645 69.7097 720.92 159.577 742.001 252.468C763.083 345.361 770.957 441.22 759.289 521.011C758.957 523.286 761.377 524.905 763.363 523.811C873.074 463.367 990.948 414.368 1126.03 400.199C1126.97 400.1 1127.67 401.045 1127.31 401.913C1072.64 533.2 1015.54 669.857 905.41 777.142C903.718 778.791 904.734 781.706 907.116 781.887C973.962 786.979 1040.48 794.243 1106.79 803.228C1107.84 803.37 1108.24 804.658 1107.48 805.373C1021.45 885.461 926.215 971.01 788.709 993.556L788.7 993.558L788.691 993.56C755.4 999.835 722.181 996.565 689.347 989.457C666.326 984.473 643.538 977.614 621.053 970.847C611.462 967.96 601.927 965.09 592.451 962.389C571.537 954.04 550.048 949.943 528.547 948.038C506.938 944.457 485.46 943.39 462.872 946.432C452.488 946.739 441.993 947.225 431.435 947.713C408.58 948.771 385.432 949.842 362.482 949.142C328.942 948.12 295.927 943.315 265.1 929.181Z" stroke="#EBEBEB" stroke-width="1.5"/>
</svg>
