<svg width="20" height="16" viewBox="0 0 20 16" fill="none" xmlns="http://www.w3.org/2000/svg">
<path fill-rule="evenodd" clip-rule="evenodd" d="M1 0H8C8.51284 0 8.93551 0.38604 8.99327 0.883379L9 1V9C9 9.07165 8.9923 9.143 8.97709 9.21281L8.94868 9.31623L6.94868 15.3162C6.82494 15.6874 6.49788 15.9488 6.11604 15.9933L6 16H2C1.35759 16 0.892869 15.4077 1.02037 14.7981L1.05132 14.6838L2.61257 10H1C0.487164 10 0.0644928 9.61396 0.00672773 9.11662L0 9V1C0 0.487164 0.38604 0.0644928 0.883379 0.00672773L1 0H8H1ZM12 0H19C19.5128 0 19.9355 0.38604 19.9933 0.883379L20 1V9C20 9.07165 19.9923 9.143 19.9771 9.21281L19.9487 9.31623L17.9487 15.3162C17.8249 15.6874 17.4979 15.9488 17.116 15.9933L17 16H13C12.3576 16 11.8929 15.4077 12.0204 14.7981L12.0513 14.6838L13.6126 10H12C11.4872 10 11.0645 9.61396 11.0067 9.11662L11 9V1C11 0.487164 11.386 0.0644928 11.8834 0.00672773L12 0H19H12ZM7 2H2V8H4C4.64241 8 5.10713 8.59234 4.97963 9.20188L4.94868 9.31623L3.38743 14H5.27924L7 8.83772V2ZM18 2H13V8H15C15.6424 8 16.1071 8.59234 15.9796 9.20188L15.9487 9.31623L14.3874 14H16.2792L18 8.83772V2Z" fill="black"/>
</svg>
