<svg width="20" height="21" viewBox="0 0 20 21" fill="none" xmlns="http://www.w3.org/2000/svg">
<path fill-rule="evenodd" clip-rule="evenodd" d="M17 16.8727C17.5523 16.8727 18 17.3204 18 17.8727C18 18.425 17.5523 18.8727 17 18.8727H3C2.44772 18.8727 2 18.425 2 17.8727C2 17.3204 2.44772 16.8727 3 16.8727H17ZM6.29289 10.1656L13.2929 3.16557C13.6534 2.80509 14.2206 2.77736 14.6129 3.08239L14.7071 3.16557L17.7071 6.16557C18.0676 6.52606 18.0953 7.09329 17.7903 7.48558L17.7071 7.57979L10.7071 14.5798C10.5508 14.7361 10.3481 14.8353 10.1314 14.864L10 14.8727H7C6.48716 14.8727 6.06449 14.4866 6.00673 13.9893L6 13.8727V10.8727C6 10.6517 6.07316 10.4382 6.20608 10.2647L6.29289 10.1656L13.2929 3.16557L6.29289 10.1656ZM14 5.28689L8 11.2869V12.8727H9.58579L15.5858 6.87268L14 5.28689Z" fill="#393737"/>
</svg>
