<svg width="16" height="12" viewBox="0 0 16 12" fill="none" xmlns="http://www.w3.org/2000/svg">
<path fill-rule="evenodd" clip-rule="evenodd" d="M1 0H6C6.51284 0 6.93551 0.38604 6.99327 0.883379L7 1V5C7 5.07165 6.9923 5.143 6.97709 5.21281L6.94868 5.31623L4.94868 11.3162C4.82494 11.6874 4.49788 11.9488 4.11604 11.9933L4 12H3C2.35759 12 1.89287 11.4077 2.02037 10.7981L2.05132 10.6838L3.61257 6H1C0.487164 6 0.0644928 5.61396 0.00672773 5.11662L0 5V1C0 0.487164 0.38604 0.0644928 0.883379 0.00672773L1 0H6H1ZM10 0H15C15.5128 0 15.9355 0.38604 15.9933 0.883379L16 1V5C16 5.07165 15.9923 5.143 15.9771 5.21281L15.9487 5.31623L13.9487 11.3162C13.8249 11.6874 13.4979 11.9488 13.116 11.9933L13 12H12C11.3576 12 10.8929 11.4077 11.0204 10.7981L11.0513 10.6838L12.6126 6H10C9.48716 6 9.06449 5.61396 9.00673 5.11662L9 5V1C9 0.487164 9.38604 0.0644928 9.88338 0.00672773L10 0H15H10Z" fill="#EAA95C"/>
</svg>
