<svg width="40" height="40" viewBox="0 0 40 40" fill="none" xmlns="http://www.w3.org/2000/svg">
<rect width="40" height="40" rx="4" fill="#FFF6E0"/>
<path d="M20.9412 29.956C23.2589 29.7402 25.4278 28.7194 27.0712 27.071C30.9762 23.166 30.9762 16.834 27.0712 12.929C23.1662 9.02399 16.8342 9.02399 12.9292 12.929C9.02424 16.834 9.02424 23.166 12.9292 27.071C13.9303 28.0742 15.1336 28.8527 16.4591 29.3545C17.7846 29.8562 19.2018 30.0698 20.6162 29.981C20.7251 29.9968 20.8361 29.9882 20.9412 29.956ZM11.5772 18.854C11.7911 17.2659 12.4517 15.7712 13.4822 14.544L18.9402 20L17.8522 21.088C16.8002 20.238 15.6282 19.78 14.5112 19.48C13.8612 19.306 13.2152 19.18 12.6242 19.067L12.6082 19.063C12.2412 18.993 11.8982 18.926 11.5782 18.854H11.5772ZM11.5082 20.374C11.7742 20.43 12.0432 20.482 12.3082 20.534L12.3222 20.536C12.9252 20.653 13.5242 20.769 14.1212 20.929C15.0742 21.185 15.9822 21.545 16.7832 22.157L13.4832 25.457C12.2824 24.0268 11.5881 22.2398 11.5082 20.374ZM17.8472 23.214C18.5222 24.076 18.8872 25.02 19.1442 25.987C19.2692 26.457 19.3652 26.915 19.4622 27.379L19.5462 27.774C19.5962 28.014 19.6512 28.255 19.7112 28.495C17.8158 28.4332 15.996 27.737 14.5432 26.518L17.8472 23.214ZM21.2402 28.41C21.1543 28.0958 21.0783 27.779 21.0122 27.46L20.9352 27.093C20.8372 26.624 20.7302 26.113 20.5942 25.601C20.2932 24.473 19.8322 23.264 18.9142 22.147L20.0002 21.061L25.4572 26.518C24.2546 27.5281 22.7943 28.1832 21.2402 28.41ZM21.0602 20L22.2722 18.789C23.3862 19.731 24.5522 20.249 25.6372 20.615C26.0842 20.767 26.5342 20.897 26.9482 21.018C27.1072 21.064 27.2612 21.108 27.4082 21.152C27.7582 21.258 28.0792 21.36 28.3722 21.473C28.1163 22.9412 27.4766 24.3157 26.5182 25.457L21.0602 20ZM27.8372 19.715L27.3352 19.568C26.9269 19.4523 26.5211 19.3276 26.1182 19.194C25.1742 18.874 24.2302 18.454 23.3372 17.724L26.5172 14.543C27.7839 16.0519 28.4851 17.955 28.5002 19.925C28.2802 19.85 28.0572 19.781 27.8372 19.715ZM25.4572 13.482L22.2762 16.663C21.5462 15.77 21.1252 14.826 20.8062 13.882C20.6722 13.4789 20.5475 13.0728 20.4322 12.664V12.663C20.3822 12.497 20.3352 12.331 20.2842 12.163C20.2182 11.943 20.1502 11.72 20.0752 11.5C22.0451 11.5149 23.9482 12.2157 25.4572 13.482ZM19.3842 14.362C19.7512 15.447 20.2682 16.614 21.2112 17.728L20.0002 18.94L14.5432 13.482C15.6846 12.5236 17.059 11.884 18.5272 11.628C18.6402 11.921 18.7422 12.241 18.8472 12.592L18.9822 13.052C19.1022 13.466 19.2322 13.915 19.3842 14.362Z" fill="#D99D56"/>
</svg>
