<svg width="40" height="40" viewBox="0 0 40 40" fill="none" xmlns="http://www.w3.org/2000/svg">
<rect width="40" height="40" rx="4" fill="#FFF6E0"/>
<path fill-rule="evenodd" clip-rule="evenodd" d="M18.5427 10C19.3316 10 20.0882 10.3134 20.646 10.8712L29.1288 19.354C30.2904 20.5156 30.2904 22.3989 29.1288 23.5605L23.5605 29.1288C22.3989 30.2904 20.5156 30.2904 19.354 29.1288L10.8712 20.646C10.3134 20.0882 10 19.3316 10 18.5427V12.9745C10 11.3317 11.3317 10 12.9745 10H18.5427ZM18.5427 12H12.9745C12.4363 12 12 12.4363 12 12.9745V18.5427C12 18.8012 12.1027 19.049 12.2854 19.2318L20.7682 27.7146C21.1488 28.0951 21.7658 28.0951 22.1463 27.7146L27.7146 22.1463C28.0951 21.7658 28.0951 21.1488 27.7146 20.7682L19.2318 12.2854C19.049 12.1027 18.8012 12 18.5427 12ZM16 14C17.1046 14 18 14.8954 18 16C18 17.1046 17.1046 18 16 18C14.8954 18 14 17.1046 14 16C14 14.8954 14.8954 14 16 14Z" fill="#D99D56"/>
</svg>
