<svg width="20" height="20" viewBox="0 0 20 20" fill="#F9FBFD" xmlns="http://www.w3.org/2000/svg">
<path d="M0.00401338 19.9995L1.35601 15.0315C0.465151 13.5044 -0.00289063 11.7675 1.34322e-05 9.99951C1.34322e-05 4.47651 4.47701 -0.000488281 10 -0.000488281C15.523 -0.000488281 20 4.47651 20 9.99951C20 15.5225 15.523 19.9995 10 19.9995C8.23279 20.0024 6.49667 19.5347 4.97001 18.6445L0.00401338 19.9995ZM6.39101 5.30751C6.26187 5.31553 6.13569 5.34954 6.02001 5.40751C5.91153 5.46894 5.81251 5.54574 5.72601 5.63551C5.60601 5.74851 5.53801 5.84651 5.46501 5.94151C5.09542 6.42251 4.89662 7.01293 4.90001 7.61951C4.90201 8.10951 5.03001 8.58651 5.23001 9.03251C5.63901 9.93451 6.31201 10.8895 7.20101 11.7745C7.41501 11.9875 7.62401 12.2015 7.84901 12.4005C8.9524 13.372 10.2673 14.0725 11.689 14.4465L12.258 14.5335C12.443 14.5435 12.628 14.5295 12.814 14.5205C13.1053 14.5055 13.3896 14.4266 13.647 14.2895C13.778 14.2221 13.9058 14.1486 14.03 14.0695C14.03 14.0695 14.073 14.0415 14.155 13.9795C14.29 13.8795 14.373 13.8085 14.485 13.6915C14.568 13.6055 14.64 13.5045 14.695 13.3895C14.773 13.2265 14.851 12.9155 14.883 12.6565C14.907 12.4585 14.9 12.3505 14.897 12.2835C14.893 12.1765 14.804 12.0655 14.707 12.0185L14.125 11.7575C14.125 11.7575 13.255 11.3785 12.724 11.1365C12.668 11.1121 12.608 11.0982 12.547 11.0955C12.4786 11.0885 12.4095 11.0962 12.3443 11.1181C12.2791 11.14 12.2193 11.1756 12.169 11.2225V11.2205C12.164 11.2205 12.097 11.2775 11.374 12.1535C11.3325 12.2093 11.2754 12.2514 11.2098 12.2746C11.1443 12.2977 11.0733 12.3008 11.006 12.2835C10.9409 12.2661 10.877 12.244 10.815 12.2175C10.691 12.1655 10.648 12.1455 10.563 12.1085L10.558 12.1065C9.98592 11.8567 9.45624 11.5194 8.98801 11.1065C8.86201 10.9965 8.74501 10.8765 8.62501 10.7605C8.23159 10.3837 7.88873 9.95752 7.60501 9.49251L7.54601 9.39751C7.50363 9.33368 7.46937 9.26481 7.44401 9.19251C7.40601 9.04551 7.50501 8.92751 7.50501 8.92751C7.50501 8.92751 7.74801 8.66151 7.86101 8.51751C7.9551 8.39783 8.04289 8.27333 8.12401 8.14451C8.24201 7.95451 8.27901 7.75951 8.21701 7.60851C7.93701 6.92451 7.64701 6.24351 7.34901 5.56751C7.29001 5.43351 7.11501 5.33751 6.95601 5.31851C6.90201 5.31251 6.84801 5.30651 6.79401 5.30251C6.65972 5.29584 6.52515 5.29717 6.39101 5.30651V5.30751Z"
      fill="#fff"/>
</svg>
