<svg width="22" height="22" viewBox="0 0 22 22" fill="none" xmlns="http://www.w3.org/2000/svg">
<path fill-rule="evenodd" clip-rule="evenodd" d="M11.0001 0.714355C5.31943 0.714355 0.714355 5.31943 0.714355 11.0001C0.714355 16.6807 5.31943 21.2858 11.0001 21.2858C16.6807 21.2858 21.2858 16.6807 21.2858 11.0001C21.2858 5.31943 16.6807 0.714355 11.0001 0.714355ZM6.46782 6.46786C7.67318 5.31071 9.93925 5.21429 10.8553 5.21429H11.241C13.941 5.21429 15.1946 6.13036 15.4839 6.37143C16.2071 7.04643 16.7375 8.25179 16.7857 10.0357C16.7857 10.325 16.7857 10.6143 16.7375 10.8554C16.7375 12.4464 16.4 13.7 15.5321 14.5679C14.3267 15.725 12.0607 15.8214 11.1446 15.8214H10.0839C9.97969 15.9951 9.82545 16.1688 9.6392 16.3785C9.5669 16.4599 9.48978 16.5467 9.40889 16.6411C9.33845 16.7115 9.27221 16.782 9.20886 16.8493C8.96866 17.1048 8.76994 17.3161 8.54103 17.3161C8.51693 17.3161 8.49282 17.304 8.46871 17.292C8.4446 17.2799 8.4205 17.2679 8.39639 17.2679C8.1071 17.1714 8.1071 16.6893 8.1071 16.6893V15.4839C7.237 15.2092 6.75837 14.8474 6.54727 14.6878C6.53611 14.6794 6.52571 14.6715 6.51603 14.6643C5.64818 13.8929 5.11782 12.3982 5.21425 10.0357C5.26246 8.54107 5.59996 7.2875 6.46782 6.46786ZM11.1928 6.13036H10.7589C10.1803 6.13036 8.05889 6.17857 7.04639 7.09464C6.56425 7.625 6.27496 8.39643 6.17853 9.55357V10.0357C6.0821 11.9161 6.46782 13.3143 7.14282 13.8929C7.23925 13.9893 7.62496 14.3268 8.58925 14.5679V16.7375C8.65514 16.7046 8.74356 16.6041 8.82371 16.5129C8.86085 16.4707 8.89622 16.4305 8.92675 16.4L9.02318 16.2554L9.50532 15.725L10.2767 14.8571H11.1928C11.7714 14.8571 13.8928 14.8089 14.9053 13.8929C15.4839 13.2661 15.7732 12.3018 15.8214 10.8554C15.8214 10.7107 15.8214 10.4696 15.7732 10.1804V9.9875C15.725 8.58929 15.3875 7.52857 14.8089 7.04643C14.7125 6.95 13.7482 6.13036 11.1928 6.13036ZM10.7107 7.52857C10.4696 7.52857 10.4696 7.19107 10.7107 7.19107C12.7357 7.14286 14.375 8.54107 14.375 11C14.375 11.2411 14.0375 11.2411 14.0375 11C14.0375 8.73393 12.4946 7.52857 10.7107 7.52857ZM8.4933 7.72095C8.58066 7.65407 8.6907 7.62396 8.79994 7.63705C8.90269 7.64972 8.99824 7.69639 9.07139 7.76964C9.07139 7.76964 9.36068 8.10714 9.50532 8.3C9.60617 8.40085 9.70701 8.57201 9.79152 8.71544C9.82822 8.77772 9.86184 8.83478 9.89103 8.87857C10.0357 9.11964 9.93925 9.40893 9.7946 9.50536L9.50532 9.74643C9.36068 9.89107 9.36068 10.0839 9.36068 10.0839C9.36068 10.0839 9.7946 11.7232 11.3857 12.1571C11.3857 12.1571 11.6267 12.1571 11.7232 12.0125L11.9642 11.7232C12.0607 11.5786 12.35 11.4821 12.591 11.6268C12.9285 11.8196 13.4107 12.1571 13.7 12.4464C13.8928 12.5911 13.941 12.8321 13.8446 13.025C13.6035 13.5071 13.0732 13.9893 12.591 13.8446C12.0607 13.7 10.8553 13.0732 10.0839 12.4464C9.69818 12.1571 9.31246 11.7714 9.07139 11.4339C8.87989 11.2041 8.68839 10.9135 8.47273 10.5862C8.4169 10.5014 8.35945 10.4142 8.29996 10.325C7.7696 9.40893 7.67318 8.97548 7.67318 8.97548C7.52853 8.44513 8.01116 7.96202 8.4933 7.72095ZM11 8.49286C10.7589 8.49286 10.8071 8.10714 11.0482 8.15536C12.591 8.20357 13.4589 9.3125 13.4107 10.6625C13.4107 10.9036 13.025 10.9036 13.0732 10.6625C13.1214 9.50536 12.35 8.58929 11 8.49286ZM11.1928 9.40893C10.9517 9.40893 10.9517 9.02321 11.1928 9.07143C11.9642 9.07143 12.3982 9.55357 12.4464 10.325C12.4464 10.5661 12.1089 10.5661 12.0607 10.325C12.0607 9.74643 11.7714 9.40893 11.1928 9.40893Z" fill="#393737"/>
</svg>
