<svg width="22" height="22" viewBox="0 0 22 22" fill="none" xmlns="http://www.w3.org/2000/svg">
<path d="M10.9521 0.714383C8.23245 0.727075 5.62856 1.81634 3.70998 3.74391C1.7914 5.67148 0.714326 8.28044 0.714355 11.0001C0.714355 13.728 1.79803 16.3442 3.72697 18.2732C5.65592 20.2021 8.27213 21.2858 11.0001 21.2858C13.728 21.2858 16.3442 20.2021 18.2732 18.2732C20.2021 16.3442 21.2858 13.728 21.2858 11.0001C21.2858 8.27215 20.2021 5.65594 18.2732 3.727C16.3442 1.79805 13.728 0.714383 11.0001 0.714383C10.9841 0.714346 10.9681 0.714346 10.9521 0.714383ZM15.2052 6.90637C15.2909 6.90466 15.4804 6.92609 15.6038 7.02637C15.6858 7.0976 15.7381 7.19701 15.7504 7.30495C15.7641 7.38466 15.7812 7.56723 15.7675 7.70952C15.6132 9.33637 14.9429 13.2827 14.6018 15.1041C14.4578 15.8755 14.1741 16.1335 13.8989 16.1584C13.3024 16.2141 12.8489 15.7641 12.2704 15.3852C11.3652 14.7912 10.8535 14.4218 9.97493 13.8424C8.95921 13.1738 9.6175 12.8052 10.1961 12.2052C10.3478 12.0475 12.9792 9.65351 13.0306 9.43666C13.0366 9.40923 13.0426 9.30809 12.9826 9.25494C12.9226 9.2018 12.8335 9.2198 12.7692 9.23437C12.6784 9.25494 11.2324 10.2115 8.43121 12.1015C8.01978 12.3844 7.64864 12.5215 7.31521 12.5129C6.94836 12.5061 6.24207 12.3064 5.71664 12.1358C5.07207 11.9258 4.56036 11.8152 4.60493 11.4595C4.62807 11.2744 4.8835 11.0849 5.37036 10.8912C8.36864 9.58494 10.3675 8.72352 11.3686 8.3078C14.2246 7.1198 14.8186 6.91323 15.2052 6.90637Z" fill="#393737"/>
</svg>
