<svg xmlns="http://www.w3.org/2000/svg">


  <symbol id="logo" viewBox="0 0 212 16">
    <path d="M0.762813 15H4.70481V14.568L3.87681 14.514C3.35481 14.46 3.03081 14.37 3.08481 13.866L3.80481 2.13L8.82681 12.696H8.93481L13.9388 2.112L14.6588 13.866C14.7128 14.37 14.3888 14.46 13.8308 14.514L13.0388 14.568V15H18.1148V14.568L17.3048 14.514C16.7468 14.46 16.5308 14.37 16.4768 13.866L15.7568 2.49C15.7028 1.986 16.0268 1.896 16.5848 1.842L17.3948 1.788V1.356H13.5608L9.52881 9.888L5.49681 1.356H1.48281V1.788L2.29281 1.842C2.81481 1.896 3.15681 1.986 3.10281 2.49L2.38281 13.866C2.32881 14.37 2.07681 14.46 1.55481 14.514L0.762813 14.568V15ZM19.7205 15H24.7965V14.568L23.9865 14.514C23.4285 14.46 23.1585 14.37 23.1585 13.866V8.286H24.4725L30.5385 15H32.8605L26.5605 8.07C29.0265 7.764 30.5385 6.702 30.5385 4.686C30.5385 2.058 28.1445 1.356 24.8865 1.356H19.7205V1.788L20.5305 1.842C21.0525 1.896 21.3405 1.986 21.3405 2.49V13.866C21.3405 14.37 21.0525 14.46 20.5305 14.514L19.7205 14.568V15ZM23.1585 7.728V1.914H24.7425C27.0465 1.914 28.5045 2.688 28.5045 4.812C28.5045 6.954 27.0465 7.728 24.7425 7.728H23.1585ZM33.449 15H38.525V14.568L37.715 14.514C37.157 14.46 36.887 14.37 36.887 13.866V2.49C36.887 1.986 37.157 1.896 37.715 1.842L38.525 1.788V1.356H33.449V1.788L34.259 1.842C34.781 1.896 35.069 1.986 35.069 2.49V13.866C35.069 14.37 34.781 14.46 34.259 14.514L33.449 14.568V15ZM43.6302 15H49.2462V14.55L48.1662 14.496C47.6082 14.442 47.3382 14.37 47.3382 13.866V8.844L51.8022 2.454C52.0902 2.04 52.1982 1.896 52.7202 1.842L53.5122 1.788V1.356H49.5522V1.788L50.4522 1.842C51.0102 1.896 51.3522 2.022 51.0462 2.454L47.0502 8.16L43.0722 2.454C42.7842 2.04 43.1082 1.896 43.6662 1.842L44.5662 1.788V1.356H39.3462V1.788L40.1382 1.842C40.6602 1.896 40.7682 2.022 41.0562 2.454L45.5202 8.844V13.866C45.5202 14.37 45.2322 14.478 44.7102 14.496L43.6302 14.55V15ZM58.8852 0.707999H58.5972L53.2872 13.902C53.0892 14.352 52.8912 14.46 52.3692 14.514L51.5772 14.568V15H55.5012V14.568L54.6012 14.514C54.0252 14.46 53.8092 14.352 54.0072 13.902L55.5552 9.978H60.6492L62.1972 13.902C62.3952 14.352 62.1792 14.46 61.6032 14.514L60.7032 14.568V15H65.9052V14.568L65.1132 14.514C64.5552 14.46 64.3752 14.352 64.1772 13.902L58.8852 0.707999ZM55.8432 9.258L58.1112 3.498L60.3792 9.258H55.8432ZM70.117 15H75.193V14.568L74.383 14.514C73.825 14.46 73.555 14.37 73.555 13.866V8.286H74.869L80.935 15H83.257L76.957 8.07C79.423 7.764 80.935 6.702 80.935 4.686C80.935 2.058 78.541 1.356 75.283 1.356H70.117V1.788L70.927 1.842C71.449 1.896 71.737 1.986 71.737 2.49V13.866C71.737 14.37 71.449 14.46 70.927 14.514L70.117 14.568V15ZM73.555 7.728V1.914H75.139C77.443 1.914 78.901 2.688 78.901 4.812C78.901 6.954 77.443 7.728 75.139 7.728H73.555ZM83.8455 15H94.7355L95.9595 10.968H95.6355L93.1695 14.172C93.0075 14.388 92.9535 14.424 92.6655 14.424H87.2835V8.214H89.9835C90.2895 8.214 90.3075 8.25 90.3795 8.448L91.0995 10.554H91.4235V5.208H91.0995L90.3795 7.332C90.3255 7.53 90.2895 7.566 89.9835 7.566H87.2835V1.932H91.7835C92.0895 1.932 92.1615 1.95 92.3055 2.22L94.1415 5.352H94.4655L93.8715 1.356H83.8455V1.788L84.6555 1.842C85.1775 1.896 85.4655 1.986 85.4655 2.49V13.866C85.4655 14.37 85.1775 14.46 84.6555 14.514L83.8455 14.568V15ZM101.593 15.216C104.401 15.216 106.705 13.686 106.705 11.328C106.705 8.88 104.923 7.836 102.403 7.008L101.449 6.702C99.8835 6.198 99.1995 5.298 99.1995 4.074C99.1995 2.544 100.621 1.644 102.079 1.644C102.493 1.644 102.799 1.662 103.141 1.734C103.501 1.824 103.699 1.896 103.969 2.346L105.715 5.208H106.039L105.391 1.536C104.509 1.194 103.483 1.05 102.331 1.05C99.9195 1.05 97.6155 2.364 97.6155 4.668C97.6155 6.684 98.8215 7.98 100.927 8.646L101.881 8.952C103.789 9.564 105.067 10.374 105.067 12.102C105.067 13.704 103.483 14.64 101.611 14.64C100.963 14.64 100.603 14.586 100.261 14.46C99.9555 14.334 99.7215 14.118 99.5595 13.812L98.0115 10.626H97.6875L98.1015 14.748C99.1095 15.09 100.207 15.216 101.593 15.216ZM115.722 15.216C119.682 15.216 122.904 12.39 122.904 8.142C122.904 3.876 119.682 1.05 115.722 1.05C111.762 1.05 108.54 3.876 108.54 8.142C108.54 12.39 111.762 15.216 115.722 15.216ZM115.722 14.622C112.788 14.622 110.61 12.264 110.61 8.142C110.61 3.984 112.788 1.644 115.722 1.644C118.638 1.644 120.816 3.984 120.816 8.142C120.816 12.264 118.638 14.622 115.722 14.622ZM124.592 15H129.668V14.568L128.858 14.514C128.3 14.46 128.03 14.37 128.03 13.866V8.286H129.344L135.41 15H137.732L131.432 8.07C133.898 7.764 135.41 6.702 135.41 4.686C135.41 2.058 133.016 1.356 129.758 1.356H124.592V1.788L125.402 1.842C125.924 1.896 126.212 1.986 126.212 2.49V13.866C126.212 14.37 125.924 14.46 125.402 14.514L124.592 14.568V15ZM128.03 7.728V1.914H129.614C131.918 1.914 133.376 2.688 133.376 4.812C133.376 6.954 131.918 7.728 129.614 7.728H128.03ZM141.15 15H146.766V14.55L145.686 14.496C145.128 14.442 144.876 14.37 144.876 13.866V1.878H148.008C148.296 1.878 148.386 1.896 148.512 2.166L150.114 5.568H150.438L149.988 1.356H137.91L137.478 5.568H137.802L139.386 2.166C139.512 1.896 139.602 1.878 139.908 1.878H143.04V13.866C143.04 14.37 142.752 14.478 142.23 14.496L141.15 14.55V15ZM159.959 15.216C161.975 15.216 163.487 14.172 164.765 12.498C165.557 13.416 166.277 14.262 166.871 15H170.003V14.604L169.283 14.55C168.797 14.496 168.401 14.1 167.843 13.398C167.195 12.606 166.475 11.796 165.737 11.004L168.023 7.152C168.311 6.666 168.581 6.414 169.139 6.396L169.931 6.378V5.964H165.881V6.378L166.799 6.396C167.429 6.414 167.573 6.738 167.231 7.332L165.359 10.59C163.919 9.096 162.497 7.71 161.201 6.63C162.983 6 164.639 5.082 164.639 3.462C164.639 1.932 163.217 1.05 161.273 1.05C159.167 1.05 157.529 2.328 157.529 3.984C157.529 5.064 158.177 6.072 159.401 7.152C157.295 7.926 155.495 9.186 155.495 11.292C155.495 13.218 157.061 15.216 159.959 15.216ZM159.095 3.39C159.095 2.238 159.905 1.5 161.255 1.5C162.479 1.5 163.325 2.202 163.325 3.57C163.325 4.884 162.533 5.82 160.949 6.414C159.815 5.424 159.095 4.542 159.095 3.39ZM157.295 10.608C157.295 9.24 157.997 8.07 159.653 7.35C161.255 8.718 162.929 10.446 164.423 12.102C163.433 13.47 162.281 14.28 160.697 14.28C158.717 14.28 157.295 12.642 157.295 10.608ZM179.306 15.216C182.114 15.216 184.418 13.686 184.418 11.328C184.418 8.88 182.636 7.836 180.116 7.008L179.162 6.702C177.596 6.198 176.912 5.298 176.912 4.074C176.912 2.544 178.334 1.644 179.792 1.644C180.206 1.644 180.512 1.662 180.854 1.734C181.214 1.824 181.412 1.896 181.682 2.346L183.428 5.208H183.752L183.104 1.536C182.222 1.194 181.196 1.05 180.044 1.05C177.632 1.05 175.328 2.364 175.328 4.668C175.328 6.684 176.534 7.98 178.64 8.646L179.594 8.952C181.502 9.564 182.78 10.374 182.78 12.102C182.78 13.704 181.196 14.64 179.324 14.64C178.676 14.64 178.316 14.586 177.974 14.46C177.668 14.334 177.434 14.118 177.272 13.812L175.724 10.626H175.4L175.814 14.748C176.822 15.09 177.92 15.216 179.306 15.216ZM186.379 15H192.193V14.532L190.645 14.496C190.087 14.478 189.817 14.37 189.817 13.866V1.914H191.905C194.335 1.914 195.775 2.706 195.775 5.028C195.775 7.386 194.335 8.124 191.905 8.124H190.267V8.7H192.067C195.235 8.7 197.809 7.908 197.809 4.974C197.809 2.022 195.235 1.356 192.067 1.356H186.379V1.788L187.189 1.842C187.711 1.896 187.999 1.986 187.999 2.49V13.866C187.999 14.37 187.711 14.46 187.189 14.514L186.379 14.568V15ZM204.274 0.707999H203.986L198.676 13.902C198.478 14.352 198.28 14.46 197.758 14.514L196.966 14.568V15H200.89V14.568L199.99 14.514C199.414 14.46 199.198 14.352 199.396 13.902L200.944 9.978H206.038L207.586 13.902C207.784 14.352 207.568 14.46 206.992 14.514L206.092 14.568V15H211.294V14.568L210.502 14.514C209.944 14.46 209.764 14.352 209.566 13.902L204.274 0.707999ZM201.232 9.258L203.5 3.498L205.768 9.258H201.232Z"/>
  </symbol>



  <!--header-->

  <!--icon-about-->
  <symbol id="icon-about" viewBox="0 0 18 18">
    <path fill-rule="evenodd" clip-rule="evenodd" d="M9.00008 0.666748C13.6025 0.666748 17.3334 4.39771 17.3334 9.00008C17.3334 13.6025 13.6025 17.3334 9.00008 17.3334C4.39771 17.3334 0.666748 13.6025 0.666748 9.00008C0.666748 4.39771 4.39771 0.666748 9.00008 0.666748ZM9.00008 2.33341C5.31818 2.33341 2.33341 5.31818 2.33341 9.00008C2.33341 12.682 5.31818 15.6667 9.00008 15.6667C12.682 15.6667 15.6667 12.682 15.6667 9.00008C15.6667 5.31818 12.682 2.33341 9.00008 2.33341ZM9.00008 7.33341C9.46032 7.33341 9.83341 7.70651 9.83341 8.16675V13.1667C9.83341 13.627 9.46032 14.0001 9.00008 14.0001C8.53984 14.0001 8.16675 13.627 8.16675 13.1667V8.16675C8.16675 7.70651 8.53984 7.33341 9.00008 7.33341ZM9.00008 4.00008C9.46032 4.00008 9.83341 4.37318 9.83341 4.83342C9.83341 5.29365 9.46032 5.66675 9.00008 5.66675C8.53984 5.66675 8.16675 5.29365 8.16675 4.83342C8.16675 4.37318 8.53984 4.00008 9.00008 4.00008Z"/>
  </symbol>


  <!--student-->
  <symbol id="icon-student" viewBox="0 0 20 17">
    <path fill-rule="evenodd" clip-rule="evenodd" d="M9.72817 0.300996C9.90301 0.233001 10.097 0.233001 10.2718 0.300996L19.2718 3.801C19.5601 3.9131 19.75 4.19069 19.75 4.5C19.75 4.80931 19.5601 5.08689 19.2718 5.199L17.8884 5.737V13.0573C17.8884 13.3611 17.7051 13.6349 17.4243 13.7507L10.2858 16.6934C10.1018 16.7692 9.89525 16.7689 9.71154 16.6923L3.71154 14.1923C3.43205 14.0759 3.25 13.8028 3.25 13.5V6.17972L1.75 5.59638V5.59854V5.60798V5.61745V5.62694V5.63646V5.64601V5.65559V5.66519V5.67483V5.68448V5.69417V5.70388V5.71362V5.72338V5.73317V5.74299V5.75283V5.7627V5.77259V5.78251V5.79245V5.80242V5.81242V5.82243V5.83248V5.84254V5.85263V5.86275V5.87289V5.88305V5.89323V5.90344V5.91367V5.92393V5.93421V5.94451V5.95483V5.96517V5.97554V5.98593V5.99634V6.00677V6.01723V6.0277V6.0382V6.04872V6.05925V6.06981V6.08039V6.09099V6.10161V6.11225V6.12291V6.13359V6.14428V6.155V6.16574V6.17649V6.18727V6.19806V6.20887V6.2197V6.23055V6.24142V6.2523V6.2632V6.27412V6.28505V6.29601V6.30698V6.31796V6.32897V6.33999V6.35102V6.36207V6.37314V6.38423V6.39533V6.40644V6.41757V6.42872V6.43988V6.45105V6.46224V6.47344V6.48466V6.49589V6.50714V6.5184V6.52968V6.54096V6.55226V6.56358V6.5749V6.58624V6.59759V6.60896V6.62034V6.63172V6.64312V6.65454V6.66596V6.6774V6.68884V6.7003V6.71177V6.72325V6.73474V6.74624V6.75775V6.76927V6.7808V6.79234V6.80389V6.81545V6.82702V6.8386V6.85019V6.86179V6.87339V6.885V6.89662V6.90825V6.91989V6.93154V6.94319V6.95485V6.96652V6.97819V6.98987V7.00156V7.01326V7.02496V7.03666V7.04838V7.0601V7.07182V7.08356V7.09529V7.10703V7.11878V7.13053V7.14229V7.15405V7.16582V7.17759V7.18936V7.20114V7.21292V7.22471V7.23649V7.24829V7.26008V7.27188V7.28368V7.29549V7.30729V7.3191V7.33091V7.34272V7.35454V7.36635V7.37817V7.38999V7.40181V7.41363V7.42545V7.43727V7.44909V7.46092V7.47274V7.48456V7.49639V7.50821V7.52003V7.53185V7.54367V7.55549V7.56731V7.57912V7.59094V7.60275V7.61456V7.62637V7.63818V7.64998V7.66178V7.67358V7.68538V7.69717V7.70896V7.72075V7.73253V7.74431V7.75609V7.76786V7.77963V7.79139V7.80315V7.8149V7.82665V7.8384V7.85013V7.86187V7.87359V7.88532V7.89703V7.90874V7.92045V7.93214V7.94383V7.95552V7.96719V7.97886V7.99053V8.00218V8.01383V8.02547V8.0371V8.04873V8.06034V8.07195V8.08355V8.09514V8.10672V8.11829V8.12986V8.14141V8.15296V8.16449V8.17601V8.18753V8.19903V8.21053V8.22201V8.23348V8.24495V8.2564V8.26784V8.27926V8.29068V8.30209V8.31348V8.32486V8.33623V8.34759V8.35893V8.37026V8.38158V8.39288V8.40418V8.41545V8.42672V8.43797V8.44921V8.46043V8.47164V8.48284V8.49402V8.50518V8.51633V8.52747V8.53859V8.54969V8.56078V8.57186V8.58291V8.59396V8.60498V8.61599V8.62698V8.63796V8.64892V8.65986V8.67078V8.68169V8.69258V8.70345V8.71431V8.72514V8.73596V8.74676V8.75754V8.7683V8.77905V8.78977V8.80048V8.81116V8.82183V8.83247V8.8431V8.85371V8.86429V8.87486V8.88541V8.89593V8.90643V8.91692V8.92738V8.93782V8.94824V8.95863V8.96901V8.97936V8.98969V9H0.25V8.98969V8.97936V8.96901V8.95863V8.94824V8.93782V8.92738V8.91692V8.90643V8.89593V8.88541V8.87486V8.86429V8.85371V8.8431V8.83247V8.82183V8.81116V8.80048V8.78977V8.77905V8.7683V8.75754V8.74676V8.73596V8.72514V8.71431V8.70345V8.69258V8.68169V8.67078V8.65986V8.64892V8.63796V8.62698V8.61599V8.60498V8.59396V8.58291V8.57186V8.56078V8.54969V8.53859V8.52747V8.51633V8.50518V8.49402V8.48284V8.47164V8.46043V8.44921V8.43797V8.42672V8.41545V8.40418V8.39288V8.38158V8.37026V8.35893V8.34759V8.33623V8.32486V8.31348V8.30209V8.29068V8.27926V8.26784V8.2564V8.24495V8.23348V8.22201V8.21053V8.19903V8.18753V8.17601V8.16449V8.15296V8.14141V8.12986V8.11829V8.10672V8.09514V8.08355V8.07195V8.06034V8.04873V8.0371V8.02547V8.01383V8.00218V7.99053V7.97886V7.96719V7.95552V7.94383V7.93214V7.92045V7.90874V7.89703V7.88532V7.87359V7.86187V7.85013V7.8384V7.82665V7.8149V7.80315V7.79139V7.77963V7.76786V7.75609V7.74431V7.73253V7.72075V7.70896V7.69717V7.68538V7.67358V7.66178V7.64998V7.63818V7.62637V7.61456V7.60275V7.59094V7.57912V7.56731V7.55549V7.54367V7.53185V7.52003V7.50821V7.49639V7.48456V7.47274V7.46092V7.44909V7.43727V7.42545V7.41363V7.40181V7.38999V7.37817V7.36635V7.35454V7.34272V7.33091V7.3191V7.30729V7.29549V7.28368V7.27188V7.26008V7.24829V7.23649V7.22471V7.21292V7.20114V7.18936V7.17759V7.16582V7.15405V7.14229V7.13053V7.11878V7.10703V7.09529V7.08356V7.07182V7.0601V7.04838V7.03666V7.02496V7.01326V7.00156V6.98987V6.97819V6.96652V6.95485V6.94319V6.93154V6.91989V6.90825V6.89662V6.885V6.87339V6.86179V6.85019V6.8386V6.82702V6.81545V6.80389V6.79234V6.7808V6.76927V6.75775V6.74624V6.73474V6.72325V6.71177V6.7003V6.68884V6.6774V6.66596V6.65454V6.64312V6.63172V6.62034V6.60896V6.59759V6.58624V6.5749V6.56358V6.55226V6.54096V6.52968V6.5184V6.50714V6.49589V6.48466V6.47344V6.46224V6.45105V6.43988V6.42872V6.41757V6.40644V6.39533V6.38423V6.37314V6.36207V6.35102V6.33999V6.32897V6.31796V6.30698V6.29601V6.28505V6.27412V6.2632V6.2523V6.24142V6.23055V6.2197V6.20887V6.19806V6.18727V6.17649V6.16574V6.155V6.14428V6.13359V6.12291V6.11225V6.10161V6.09099V6.08039V6.06981V6.05925V6.04872V6.0382V6.0277V6.01723V6.00677V5.99634V5.98593V5.97554V5.96517V5.95483V5.94451V5.93421V5.92393V5.91367V5.90344V5.89323V5.88305V5.87289V5.86275V5.85263V5.84254V5.83248V5.82243V5.81242V5.80242V5.79245V5.78251V5.77259V5.7627V5.75283V5.74299V5.73317V5.72338V5.71362V5.70388V5.69417V5.68448V5.67483V5.66519V5.65559V5.64601V5.63646V5.62694V5.61745V5.60798V5.59854V5.58913V5.57975V5.5704V5.56108V5.55178V5.54252V5.53328V5.52407V5.5149V5.50575V5.49663V5.48754V5.47849V5.46946V5.46046V5.4515V5.44256V5.43366V5.42479V5.41595V5.40714V5.39836V5.38961V5.3809V5.37222V5.36357V5.35495V5.34637V5.33782V5.3293V5.32082V5.31237V5.30395V5.29557V5.28722V5.27891V5.27063V5.26238V5.25417V5.24599V5.23785V5.22974V5.22167V5.21363V5.20563V5.19767V5.18974V5.18185V5.17399V5.16617V5.15839V5.15064V5.14293V5.13526V5.12762V5.12003V5.11247V5.10494V5.09746V5.09001V5.08261V5.07524V5.06791V5.06061V5.05336V5.04615V5.03897V5.03184V5.02474V5.01768V5.01067V5.00369V4.99676V4.98986V4.98301V4.97619V4.96942V4.96269V4.956V4.94935V4.94274V4.93617V4.92965V4.92317V4.91673V4.91033V4.90398V4.89767V4.8914V4.88517V4.87899V4.87285V4.86676V4.8607V4.8547V4.84873V4.84281V4.83694V4.83111V4.82532V4.81958V4.81389V4.80824V4.80263V4.79708V4.79156V4.7861V4.78067V4.7753V4.76997V4.76469V4.75945V4.75427V4.74913V4.74403V4.73899V4.73399V4.72904V4.72413V4.71928V4.71447V4.70971V4.705V4.70034V4.69573V4.69117V4.68666V4.68219V4.67778V4.67341V4.6691V4.66483V4.66062V4.65646V4.65234V4.64828V4.64427V4.64031V4.6364V4.63254V4.62874V4.62498V4.62128V4.61763V4.61403V4.61049V4.60699V4.60355V4.60017V4.59683V4.59355V4.59032V4.58715V4.58403V4.58097V4.57795V4.575V4.57209V4.56924V4.56645V4.56371V4.56103V4.5584V4.55583V4.55331V4.55085V4.54844V4.54609V4.5438V4.54156V4.53938V4.53726V4.53519V4.53318V4.53123V4.52934V4.5275V4.52572V4.524V4.52233V4.52073V4.51918V4.51769V4.51627V4.5149V4.51358V4.51233V4.51114V4.51001V4.50893V4.50792V4.50697V4.50608V4.50524V4.50447V4.50376V4.50311V4.50252V4.50199V4.50153V4.50112V4.50078V4.5005V4.50028V4.50013V4.50003L1 4.5H0.25C0.25 4.19069 0.439887 3.9131 0.728165 3.801L9.72817 0.300996ZM3.06927 4.5L10 1.80472L16.9307 4.5L10 7.19528L3.06927 4.5ZM9.25 8.51305L4.75 6.76305V13L9.25 14.875V8.51305ZM10.75 14.8796L16.3884 12.5552V6.32033L10.75 8.51305V14.8796Z"/>
  </symbol>

    <!--header-popular-vacancies-->
  <symbol id="header-vacansy" width="16" height="16" viewBox="0 0 16 16" fill="none">
    <path d="M0.75 8.75H7.25V15.25H3C1.75736 15.25 0.75 14.2426 0.75 13V8.75ZM7.25 7.25H0.75V3C0.75 1.75736 1.75736 0.75 3 0.75H7.25V7.25ZM8.75 15.25V8.75H15.25V13C15.25 14.2426 14.2426 15.25 13 15.25H8.75ZM15.25 7.25H8.75V0.75H13C14.2426 0.75 15.25 1.75736 15.25 3V7.25Z" stroke="#393737" stroke-width="1.5"/>
  </symbol>


  <symbol id="form" viewBox="0 0 16 16">
    <path fill-rule="evenodd" clip-rule="evenodd" d="M11.8232 2.23741C11.9209 2.13978 12.0791 2.13978 12.1768 2.23741L13.7626 3.82319C13.8602 3.92083 13.8602 4.07912 13.7626 4.17675L7.76256 10.1767C7.71568 10.2236 7.65209 10.25 7.58579 10.25H5.75V8.41419C5.75 8.34788 5.77634 8.28429 5.82322 8.23741L11.8232 2.23741ZM13.2374 1.17675C12.554 0.493331 11.446 0.493329 10.7626 1.17675L4.76256 7.17675C4.43437 7.50494 4.25 7.95006 4.25 8.41419V11V11.75H5H7.58579C8.04991 11.75 8.49503 11.5656 8.82322 11.2374L14.8232 5.23741C15.5066 4.55399 15.5066 3.44595 14.8232 2.76253L13.2374 1.17675ZM1 14.25C0.585786 14.25 0.25 14.5858 0.25 15C0.25 15.4142 0.585786 15.75 1 15.75H15C15.4142 15.75 15.75 15.4142 15.75 15C15.75 14.5858 15.4142 14.25 15 14.25H1Z"/>
  </symbol>

  <!--burger-->
  <symbol id="burger" viewBox="0 0 24 24" stroke="black" stroke-width="2" fill="none">
    <path d="M2 7H22"/>
    <path d="M7 12L22 12"/>
    <path d="M12 17L22 17"/>
  </symbol>

  <!--close menu-mob-->
  <symbol id="close-menu" width="14" height="14" viewBox="0 0 14 14">
    <path fill-rule="evenodd" clip-rule="evenodd" d="M8.41425 7.00025L13.7072 1.70725C14.0982 1.31625 14.0982 0.68425 13.7072 0.29325C13.3162 -0.09775 12.6842 -0.09775 12.2933 0.29325L7.00025 5.58625L1.70725 0.29325C1.31625 -0.09775 0.68425 -0.09775 0.29325 0.29325C-0.09775 0.68425 -0.09775 1.31625 0.29325 1.70725L5.58625 7.00025L0.29325 12.2933C-0.09775 12.6842 -0.09775 13.3162 0.29325 13.7072C0.48825 13.9022 0.74425 14.0002 1.00025 14.0002C1.25625 14.0002 1.51225 13.9022 1.70725 13.7072L7.00025 8.41425L12.2933 13.7072C12.4882 13.9022 12.7443 14.0002 13.0002 14.0002C13.2562 14.0002 13.5122 13.9022 13.7072 13.7072C14.0982 13.3162 14.0982 12.6842 13.7072 12.2933L8.41425 7.00025Z"/>
  </symbol>



<!--slider-->

  <!--arrow-->
  <symbol id="arrow-nav-left" viewBox="0 0 8 12" fill="none">
    <path d="M6.66675 11L1.66675 6L6.66675 1" stroke-width="2" stroke-linecap="round" stroke-linejoin="round"/>
  </symbol>



  <!--icon ask-->
  <symbol id="ask" width="16" height="16" viewBox="0 0 16 16" fill="none">
    <path d="M11.3335 1.99955C11.5086 1.82445 11.7165 1.68556 11.9452 1.5908C12.174 1.49604 12.4192 1.44727 12.6668 1.44727C12.9145 1.44727 13.1597 1.49604 13.3884 1.5908C13.6172 1.68556 13.8251 1.82445 14.0002 1.99955C14.1753 2.17465 14.3142 2.38252 14.4089 2.61129C14.5037 2.84006 14.5524 3.08526 14.5524 3.33288C14.5524 3.58051 14.5037 3.8257 14.4089 4.05448C14.3142 4.28325 14.1753 4.49112 14.0002 4.66622L5.00016 13.6662L1.3335 14.6662L2.3335 10.9996L11.3335 1.99955Z" stroke="#393737" stroke-width="2" stroke-linecap="round" stroke-linejoin="round"/>
  </symbol>

  <symbol id="reset-filter" viewBox="0 0 12 12" fill="none">
    <path fill-rule="evenodd" clip-rule="evenodd" d="M8.707 7.293C9.098 7.684 9.098 8.316 8.707 8.707C8.512 8.902 8.256 9 8 9C7.744 9 7.488 8.902 7.293 8.707L6 7.414L4.707 8.707C4.512 8.902 4.256 9 4 9C3.744 9 3.488 8.902 3.293 8.707C2.902 8.316 2.902 7.684 3.293 7.293L4.586 6L3.293 4.707C2.902 4.316 2.902 3.684 3.293 3.293C3.684 2.902 4.316 2.902 4.707 3.293L6 4.586L7.293 3.293C7.684 2.902 8.316 2.902 8.707 3.293C9.098 3.684 9.098 4.316 8.707 4.707L7.414 6L8.707 7.293ZM6 0C2.686 0 0 2.687 0 6C0 9.314 2.686 12 6 12C9.313 12 12 9.314 12 6C12 2.687 9.313 0 6 0Z" fill="#121212"/>
  </symbol>


<!--accordion-->

  <!--plus-->
  <symbol id="plus" viewBox="0 0 32 32" fill="none">
    <rect width="32" height="32" rx="16" fill="#FFF6E0"/>
    <path fill-rule="evenodd" clip-rule="evenodd" d="M16 10C16.5523 10 17 10.4477 17 11V15H21C21.5523 15 22 15.4477 22 16C22 16.5523 21.5523 17 21 17H17V21C17 21.5523 16.5523 22 16 22C15.4477 22 15 21.5523 15 21V17H11C10.4477 17 10 16.5523 10 16C10 15.4477 10.4477 15 11 15H15V11C15 10.4477 15.4477 10 16 10Z" fill="#D99D56"/>
  </symbol>



</svg>
