<svg width="20" height="21" viewBox="0 0 20 21" fill="none" xmlns="http://www.w3.org/2000/svg">
<path fill-rule="evenodd" clip-rule="evenodd" d="M9 0.5C13.9706 0.5 18 4.52944 18 9.5C18 11.6248 17.2637 13.5776 16.0323 15.1172L19.7071 18.7929C20.0976 19.1834 20.0976 19.8166 19.7071 20.2071C19.3466 20.5676 18.7794 20.5953 18.3871 20.2903L18.2929 20.2071L14.6172 16.5323C13.0776 17.7637 11.1248 18.5 9 18.5C4.02944 18.5 0 14.4706 0 9.5C0 4.52944 4.02944 0.5 9 0.5ZM9 2.5C5.13401 2.5 2 5.63401 2 9.5C2 13.366 5.13401 16.5 9 16.5C12.866 16.5 16 13.366 16 9.5C16 5.63401 12.866 2.5 9 2.5Z" fill="black"/>
</svg>
